<?xml version="1.0" encoding="UTF-8" standalone="no"?>
<!-- Created with Inkscape (http://www.inkscape.org/) -->

<svg
   xmlns:dc="http://purl.org/dc/elements/1.1/"
   xmlns:cc="http://creativecommons.org/ns#"
   xmlns:rdf="http://www.w3.org/1999/02/22-rdf-syntax-ns#"
   xmlns:svg="http://www.w3.org/2000/svg"
   xmlns="http://www.w3.org/2000/svg"
   xmlns:sodipodi="http://sodipodi.sourceforge.net/DTD/sodipodi-0.dtd"
   xmlns:inkscape="http://www.inkscape.org/namespaces/inkscape"
   width="210mm"
   height="297mm"
   viewBox="0 0 210 297"
   version="1.1"
   id="svg5181"
   inkscape:version="0.92.1 unknown"
   sodipodi:docname="portes.svg">
  <defs
     id="defs5175" />
  <sodipodi:namedview
     id="base"
     pagecolor="#ffffff"
     bordercolor="#666666"
     borderopacity="1.0"
     inkscape:pageopacity="0.0"
     inkscape:pageshadow="2"
     inkscape:zoom="0.7"
     inkscape:cx="-832.65909"
     inkscape:cy="1264.2209"
     inkscape:document-units="mm"
     inkscape:current-layer="layer1"
     showgrid="false"
     inkscape:window-width="1680"
     inkscape:window-height="1026"
     inkscape:window-x="0"
     inkscape:window-y="24"
     inkscape:window-maximized="1" />
  <metadata
     id="metadata5178">
    <rdf:RDF>
      <cc:Work
         rdf:about="">
        <dc:format>image/svg+xml</dc:format>
        <dc:type
           rdf:resource="http://purl.org/dc/dcmitype/StillImage" />
        <dc:title />
      </cc:Work>
    </rdf:RDF>
  </metadata>
  <g
     inkscape:label="Calque 1"
     inkscape:groupmode="layer"
     id="layer1">
    <path
       style="fill:none;stroke:#0000ff;stroke-width:0.2;stroke-miterlimit:4;stroke-dasharray:none"
       id="box_font-3"
       d="m -409.95847,-18.26301 v -196 h 13.44999 v 3 h 13.29999 v -3 h 13.50002 v 3 h 13.3 v -3 h 13.44997 v 10.26579 h 3.00002 v 10.41579 h -3.00002 v 10.21579 h 3.00002 v 10.41579 h -3.00002 v 10.21579 h 3.00002 v 10.41578 h -3.00002 v 10.21579 h 3.00002 v 10.41579 h -3.00002 v 10.21579 h 3.00002 v 10.41579 h -3.00002 v 10.2158 h 3.00002 v 10.41579 h -3.00002 v 10.21579 h 3.00002 v 10.41579 h -3.00002 v 10.21579 h 3.00002 v 10.41579 h -3.00002 v 10.21579 h 3.00002 v 10.41579 h -3.00002 v 10.26578 h -13.44997 v -3 h -13.3 v 3 h -13.50002 v -3 h -13.29999 v 3 z"
       inkscape:connector-curvature="0" />
    <path
       style="fill:none;stroke:#0000ff;stroke-width:0.2;stroke-miterlimit:4;stroke-dasharray:none"
       id="box_bottom-7"
       d="m -342.9585,-18.36303 v -10.36579 h 3.00001 v -10.21577 h -3.00001 v -10.4158 h 3.00001 v -10.21578 h -3.00001 v -10.4158 h 3.00001 v -10.21577 h -3.00001 v -10.4158 h 3.00001 v -10.2158 h -3.00001 v -10.41577 h 3.00001 v -10.2158 h -3.00001 v -10.4158 h 3.00001 v -10.21578 h -3.00001 v -10.4158 h 3.00001 v -10.21577 h -3.00001 v -10.4158 h 3.00001 v -10.2158 h -3.00001 v -10.41577 h 3.00001 v -10.2158 h -3.00001 v -10.3658 h 11.50456 v 3.00001 h 11.35454 v -3.00001 h 11.55454 v 3.00001 h 11.35454 v -3.00001 h 11.55454 v 3.00001 h 11.35454 v -3.00001 h 11.55457 v 3.00001 h 11.35454 v -3.00001 h 11.55454 v 3.00001 h 11.35457 v -3.00001 h 11.50453 v 10.3658 h -3 v 10.2158 h 3 v 10.41577 h -3 v 10.2158 h 3 v 10.4158 h -3 v 10.21577 h 3 v 10.4158 h -3 v 10.21578 h 3 v 10.4158 h -3 v 10.2158 h 3 v 10.41577 h -3 v 10.2158 h 3 v 10.4158 h -3 v 10.21577 h 3 v 10.4158 h -3 v 10.21578 h 3 v 10.4158 h -3 v 10.21577 h 3 v 10.36579 h -11.50453 v -3 h -11.35457 v 3 h -11.55454 v -3 h -11.35454 v 3 h -11.55457 v -3 h -11.35454 v 3 h -11.55454 v -3 h -11.35454 v 3 h -11.55454 v -3 h -11.35454 v 3 z"
       inkscape:connector-curvature="0" />
    <path
       style="fill:none;stroke:#0000ff;stroke-width:0.2;stroke-miterlimit:4;stroke-dasharray:none"
       id="box_left_side-5"
       d="m -334.0585,-281.36302 h 114 v 13.34999 h 3 v 13.5 h -3 v 13.30001 h 3 v 13.5 h -3 v 13.34999 h -8.40454 v 3.00001 h -11.55455 v -3.00001 h -11.35454 v 3.00001 h -11.55455 v -3.00001 h -11.35455 v 3.00001 h -11.55454 v -3.00001 h -11.35455 v 3.00001 h -11.55454 v -3.00001 h -11.35455 v 3.00001 h -11.55454 v -3.00001 h -8.40455 v -13.34999 h -3 v -13.5 h 3 v -13.30001 h -3 v -13.5 h 3 v -13.34999 z"
       inkscape:connector-curvature="0" />
    <path
       style="fill:none;stroke:#0000ff;stroke-width:0.2;stroke-miterlimit:4;stroke-dasharray:none"
       id="box_left_side-3"
       d="M -225.85849,48.63696 H -339.85848 V 35.28697 h -3 v -13.5 h 3 V 8.48696 h -3 V -5.01305 h 3 v -13.34998 h 8.40452 v -3.00001 h 11.55456 v 3.00001 h 11.35454 v -3.00001 h 11.55455 v 3.00001 h 11.35455 v -3.00001 h 11.55454 v 3.00001 h 11.35455 v -3.00001 h 11.55454 v 3.00001 h 11.35455 v -3.00001 h 11.55454 v 3.00001 h 8.40455 v 13.34998 h 3 V 8.48696 h -3 v 13.30001 h 3 v 13.5 h -3 v 13.34999 z"
       inkscape:connector-curvature="0" />
    <g
       id="g4494"
       transform="rotate(90,-184.9585,-116.46302)">
      <path
         inkscape:connector-curvature="0"
         d="m -282.9585,-151.46301 h 196.000005 v 13.44999 h -3 v 13.3 h 3 v 13.50002 h -3 v 13.299986 h 3 v 13.44999 h -10.26578 v 3 h -10.415795 v -3 h -10.2158 v 3 h -10.41577 v -3 h -10.2158 v 3 h -10.41578 v -3 h -10.2158 v 3 h -10.41578 v -3 h -10.2158 v 3 h -10.41579 v -3 h -10.21578 v 3 h -10.4158 v -3 h -10.2158 v 3 h -10.41578 v -3 h -10.21579 v 3 h -10.41579 v -3 h -10.21579 v 3 h -10.41579 v -3 h -10.26579 v -13.44999 h 3 V -111.213 h -3 v -13.50002 h 3 v -13.3 h -3 z"
         id="box_font-6"
         style="fill:none;stroke:#0000ff;stroke-width:0.2;stroke-miterlimit:4;stroke-dasharray:none" />
      <text
         id="text4489"
         y="-109.77435"
         x="-204.3432"
         style="font-style:normal;font-variant:normal;font-weight:normal;font-stretch:normal;font-size:21.16666603px;line-height:125%;font-family:'Old London';-inkscape-font-specification:'Old London';letter-spacing:0px;word-spacing:0px;fill:#000000;fill-opacity:1;stroke:none;stroke-width:0.2;stroke-linecap:butt;stroke-linejoin:miter;stroke-miterlimit:4;stroke-dasharray:none;stroke-opacity:1"
         xml:space="preserve"><tspan
           style="font-size:28.22222137px;fill:none;stroke:#ff0000;stroke-width:0.2;stroke-miterlimit:4;stroke-dasharray:none"
           y="-109.77435"
           x="-204.3432"
           id="tspan4487"
           sodipodi:role="line">Door</tspan></text>
    </g>
  </g>
</svg>
