<?xml version="1.0" encoding="UTF-8" standalone="no"?>
<!-- Created with Inkscape (http://www.inkscape.org/) -->

<svg
   xmlns:dc="http://purl.org/dc/elements/1.1/"
   xmlns:cc="http://creativecommons.org/ns#"
   xmlns:rdf="http://www.w3.org/1999/02/22-rdf-syntax-ns#"
   xmlns:svg="http://www.w3.org/2000/svg"
   xmlns="http://www.w3.org/2000/svg"
   xmlns:sodipodi="http://sodipodi.sourceforge.net/DTD/sodipodi-0.dtd"
   xmlns:inkscape="http://www.inkscape.org/namespaces/inkscape"
   sodipodi:docname="BlessuresFatigues.svg"
   inkscape:version="0.92.1 unknown"
   id="svg5789"
   version="1.1"
   viewBox="0 0 600 300"
   height="300mm"
   width="600mm">
  <sodipodi:namedview
     inkscape:window-maximized="1"
     inkscape:window-y="24"
     inkscape:window-x="1745"
     inkscape:window-height="1056"
     inkscape:window-width="1855"
     showgrid="false"
     inkscape:current-layer="svg5789"
     inkscape:document-units="mm"
     inkscape:cy="451.95148"
     inkscape:cx="-26.003083"
     inkscape:zoom="1.979899"
     inkscape:pageshadow="2"
     inkscape:pageopacity="0.0"
     borderopacity="1.0"
     bordercolor="#666666"
     pagecolor="#ffffff"
     id="base">
    <inkscape:grid
       type="xygrid"
       id="grid4494" />
  </sodipodi:namedview>
  <defs
     id="defs5783" />
  <metadata
     id="metadata5786">
    <rdf:RDF>
      <cc:Work
         rdf:about="">
        <dc:format>image/svg+xml</dc:format>
        <dc:type
           rdf:resource="http://purl.org/dc/dcmitype/StillImage" />
        <dc:title />
      </cc:Work>
    </rdf:RDF>
  </metadata>
  <g
     transform="translate(0,3)"
     id="layer1"
     inkscape:groupmode="layer"
     inkscape:label="Calque 1">
    <path
       style="fill:none;stroke:#0000ff;stroke-width:0.2;stroke-miterlimit:4;stroke-dasharray:none"
       id="box_bottom"
       d="m -62.011904,131.39881 h 10.907143 v 3 h 10.757143 v -3 h 10.957143 v 3 h 10.757142 v -3 h 10.9571433 v 3 H 3.0809531 v -3 H 13.988096 v 11.25 h -3 v 11.1 h 3 v 11.3 h -3 v 11.1 h 3 v 11.25 H 3.0809531 v -3 H -7.6761897 v 3 H -18.633333 v -3 h -10.757142 v 3 h -10.957143 v -3 h -10.757143 v 3 h -10.907143 v -11.25 h 3 v -11.1 h -3 v -11.3 h 3 v -11.1 h -3 z"
       inkscape:connector-curvature="0" />
    <path
       style="fill:none;stroke:#0000ff;stroke-width:0.2;stroke-miterlimit:4;stroke-dasharray:none"
       id="box_font"
       d="m 16.988096,190.39881 h 76 v 10.71667 h -3 v 10.56666 h 3 v 10.71667 H 82.180953 v 3 H 71.22381 v -3 H 60.466667 v 3 H 49.509525 v -3 H 38.752382 v 3 H 27.795239 v -3 H 16.988096 v -10.71667 h 3 v -10.56666 h -3 z"
       inkscape:connector-curvature="0" />
    <path
       style="fill:none;stroke:#0000ff;stroke-width:0.2;stroke-miterlimit:4;stroke-dasharray:none"
       id="box_left_side"
       d="m -0.011904,228.39881 h 44 v 10.61667 h 3 v 10.76666 h -3 v 10.61667 h -8.15 v 3 h -11.3 v -3 h -11.1 v 3 h -11.3 v -3 h -8.15 v -10.61667 h -3 v -10.76666 h 3 v -10.61667 z"
       inkscape:connector-curvature="0" />
    <path
       style="fill:none;stroke:#0000ff;stroke-width:0.2;stroke-miterlimit:4;stroke-dasharray:none"
       id="box_right_side"
       d="m -59.011904,228.39881 h 44 v 10.61667 h 3 v 10.76666 h -3 v 10.61667 h -8.15 v 3 h -11.3 v -3 h -11.1 v 3 h -11.3 v -3 h -8.15 v -10.61667 h -3 v -10.76666 h 3 v -10.61667 z"
       inkscape:connector-curvature="0" />
  </g>
  <path
     inkscape:connector-curvature="0"
     style="fill:none;stroke:#0000ff;stroke-width:0.2;stroke-miterlimit:4;stroke-dasharray:none"
     id="box_bottom-9"
     d="m 144.72619,137.99405 h 10.90714 v 3 h 10.75715 v -3 h 10.95714 v 3 h 10.75714 v -3 h 10.95715 v 3 h 10.75714 v -3 h 10.90714 v 11.25 h -3 v 11.1 h 3 v 11.3 h -3 v 11.1 h 3 v 11.25 h -10.90714 v -3 h -10.75714 v 3 h -10.95715 v -3 h -10.75714 v 3 h -10.95714 v -3 h -10.75715 v 3 h -10.90714 v -11.25 h 3 v -11.1 h -3 v -11.3 h 3 v -11.1 h -3 z" />
  <path
     inkscape:connector-curvature="0"
     style="fill:none;stroke:#0000ff;stroke-width:0.2;stroke-miterlimit:4;stroke-dasharray:none"
     id="box_font-4"
     d="m 223.72619,196.99405 h 76 v 10.71667 h -3 v 10.56667 h 3 v 10.71666 h -10.80714 v 3 h -10.95714 v -3 h -10.75715 v 3 h -10.95714 v -3 h -10.75714 v 3 h -10.95715 v -3 h -10.80714 v -10.71666 h 3 v -10.56667 h -3 z" />
  <path
     inkscape:connector-curvature="0"
     style="fill:none;stroke:#0000ff;stroke-width:0.2;stroke-miterlimit:4;stroke-dasharray:none"
     id="box_left_side-8"
     d="m 206.72619,234.99405 h 44 v 10.61667 h 3 v 10.76667 h -3 v 10.61666 h -8.15 v 3 h -11.3 v -3 h -11.1 v 3 h -11.3 v -3 h -8.15 v -10.61666 h -3 v -10.76667 h 3 v -10.61667 z" />
  <path
     inkscape:connector-curvature="0"
     style="fill:none;stroke:#0000ff;stroke-width:0.2;stroke-miterlimit:4;stroke-dasharray:none"
     id="box_right_side-4"
     d="m 147.72619,234.99405 h 44 v 10.61667 h 3 v 10.76667 h -3 v 10.61666 h -8.15 v 3 h -11.3 v -3 h -11.1 v 3 h -11.3 v -3 h -8.15 v -10.61666 h -3 v -10.76667 h 3 v -10.61667 z" />
  <g
     id="g4560">
    <path
       inkscape:connector-curvature="0"
       d="m -62.011904,190.39881 h 76 v 10.71667 h -3 v 10.56666 h 3 v 10.71667 H 3.1809531 v 3 H -7.7761897 v -3 H -18.533333 v 3 h -10.957142 v -3 h -10.757143 v 3 h -10.957143 v -3 h -10.807143 v -10.71667 h 3 v -10.56666 h -3 z"
       id="box_back"
       style="fill:none;stroke:#0000ff;stroke-width:0.2;stroke-miterlimit:4;stroke-dasharray:none"
       transform="translate(0,3.0000001)" />
    <g
       style="stroke-width:0.2;stroke-miterlimit:4;stroke-dasharray:none"
       transform="translate(340.89967,35.795612)"
       id="g4521">
      <path
         style="fill:none;fill-rule:evenodd;stroke:#ff0000;stroke-width:0.2;stroke-linecap:butt;stroke-linejoin:miter;stroke-miterlimit:4;stroke-dasharray:none;stroke-opacity:1"
         d="m -384,174 19,16 19,-16"
         id="path4496"
         inkscape:connector-curvature="0"
         sodipodi:nodetypes="ccc" />
      <path
         style="opacity:1;fill:none;fill-opacity:0.9298782;stroke:#ff0000;stroke-width:0.2;stroke-miterlimit:4;stroke-dasharray:none;stroke-opacity:1"
         id="path4498"
         sodipodi:type="arc"
         sodipodi:cx="-374.82727"
         sodipodi:cy="170.1727"
         sodipodi:rx="10.005651"
         sodipodi:ry="10.005651"
         sodipodi:start="2.7465359"
         sodipodi:end="6.2658946"
         sodipodi:open="true"
         d="m -384.06223,174.02348 a 10.005651,10.005651 0 0 1 2.10819,-10.87376 10.005651,10.005651 0 0 1 10.84166,-2.26748 10.005651,10.005651 0 0 1 6.28927,9.11746" />
      <path
         style="opacity:1;fill:none;fill-opacity:0.9298782;stroke:#ff0000;stroke-width:0.2;stroke-miterlimit:4;stroke-dasharray:none;stroke-opacity:1"
         id="path4498-3"
         sodipodi:type="arc"
         sodipodi:cx="354.99585"
         sodipodi:cy="170.17299"
         sodipodi:rx="10.005651"
         sodipodi:ry="10.005651"
         sodipodi:start="2.7335738"
         sodipodi:end="6.2658946"
         sodipodi:open="true"
         d="m 345.81157,174.14315 a 10.005651,10.005651 0 0 1 1.99709,-10.93129 10.005651,10.005651 0 0 1 10.8619,-2.3453 10.005651,10.005651 0 0 1 6.32945,9.13343"
         transform="scale(-1,1)" />
    </g>
  </g>
  <g
     id="g4552">
    <path
       d="m 144.72619,196.99405 h 76 v 10.71667 h -3 v 10.56667 h 3 v 10.71666 h -10.80714 v 3 h -10.95714 v -3 h -10.75715 v 3 h -10.95714 v -3 h -10.75714 v 3 h -10.95715 v -3 h -10.80714 v -10.71666 h 3 v -10.56667 h -3 z"
       id="box_back-7"
       style="fill:none;stroke:#0000ff;stroke-width:0.2;stroke-miterlimit:4;stroke-dasharray:none"
       inkscape:connector-curvature="0" />
    <path
       sodipodi:nodetypes="ccccc"
       inkscape:connector-curvature="0"
       id="path4547"
       d="m 208.33554,202.65115 c 0,7.06037 -24.70589,24.70573 -38.43478,22.99445 -7.06037,0 -12.78392,-5.72355 -12.78392,-12.78391 0,-7.06037 5.72355,-12.78392 12.78392,-12.78392 10.62295,-0.67441 26.15268,11.74938 38.43478,2.57338 z"
       style="opacity:1;fill:none;fill-opacity:0.9298782;stroke:#ff0000;stroke-width:0.12423785;stroke-miterlimit:4;stroke-dasharray:none;stroke-opacity:1" />
  </g>
</svg>
