<?xml version="1.0" encoding="UTF-8" standalone="no"?>
<!-- Created with Inkscape (http://www.inkscape.org/) -->

<svg
   xmlns:dc="http://purl.org/dc/elements/1.1/"
   xmlns:cc="http://creativecommons.org/ns#"
   xmlns:rdf="http://www.w3.org/1999/02/22-rdf-syntax-ns#"
   xmlns:svg="http://www.w3.org/2000/svg"
   xmlns="http://www.w3.org/2000/svg"
   xmlns:sodipodi="http://sodipodi.sourceforge.net/DTD/sodipodi-0.dtd"
   xmlns:inkscape="http://www.inkscape.org/namespaces/inkscape"
   width="600mm"
   height="300mm"
   viewBox="0 0 600 300"
   version="1.1"
   id="svg4659"
   inkscape:version="0.92.1 unknown"
   sodipodi:docname="monstre_Meroid.svg">
  <defs
     id="defs4653" />
  <sodipodi:namedview
     id="base"
     pagecolor="#ffffff"
     bordercolor="#666666"
     borderopacity="1.0"
     inkscape:pageopacity="0.0"
     inkscape:pageshadow="2"
     inkscape:zoom="0.35"
     inkscape:cx="268.25584"
     inkscape:cy="51.068361"
     inkscape:document-units="mm"
     inkscape:current-layer="layer1"
     showgrid="false"
     inkscape:window-width="1855"
     inkscape:window-height="1056"
     inkscape:window-x="1745"
     inkscape:window-y="24"
     inkscape:window-maximized="1" />
  <metadata
     id="metadata4656">
    <rdf:RDF>
      <cc:Work
         rdf:about="">
        <dc:format>image/svg+xml</dc:format>
        <dc:type
           rdf:resource="http://purl.org/dc/dcmitype/StillImage" />
        <dc:title></dc:title>
      </cc:Work>
    </rdf:RDF>
  </metadata>
  <g
     inkscape:label="Calque 1"
     inkscape:groupmode="layer"
     id="layer1"
     transform="translate(0,3)">
    <g
       id="g4988"
       transform="matrix(0.26458333,0,0,0.26458333,616.21879,-120.99098)">
      <path
         inkscape:connector-curvature="0"
         style="fill:none;stroke:#336699;stroke-width:0.75590551;stroke-miterlimit:4;stroke-dasharray:none"
         id="path4732-0"
         d="m -1898.5158,775.1297 h 42.3452 v 11.33858 h 41.7784 V 775.1297 h 42.5342 v 11.33858 h 41.7783 V 775.1297 h 42.5342 v 11.33858 h 41.7783 V 775.1297 h 42.5343 v 11.33858 h 41.7783 V 775.1297 h 42.5342 v 11.33858 h 41.7783 V 775.1297 h 42.5342 v 11.33858 h 41.7783 V 775.1297 h 42.3453 v 40.68391 h -11.3386 v 40.11699 h 11.3386 v 40.87289 h -11.3386 v 40.11699 h 11.3386 v 40.87289 h -11.3386 v 40.11693 h 11.3386 v 40.684 h -42.3453 v -11.3386 h -41.7783 v 11.3386 h -42.5342 v -11.3386 h -41.7783 v 11.3386 h -42.5342 v -11.3386 h -41.7783 v 11.3386 h -42.5343 v -11.3386 h -41.7783 v 11.3386 h -42.5342 v -11.3386 h -41.7783 v 11.3386 h -42.5342 v -11.3386 h -41.7784 v 11.3386 h -42.3452 v -40.6839 h 11.3386 v -40.11703 h -11.3386 v -40.87289 h 11.3386 v -40.11699 h -11.3386 V 855.9306 h 11.3386 v -40.11699 h -11.3386 z" />
      <path
         style="fill:none;stroke:#0000ff;stroke-width:0.75590551;stroke-miterlimit:4;stroke-dasharray:none"
         id="encoches_bottom-2-3"
         d="m -1856.1705,1017.0194 v 11.3386 h 42.1562 v -11.3386 z m 84.3125,0 v 11.3386 h 42.1562 v -11.3386 z m 84.3125,0 v 11.3386 h 42.1563 v -11.3386 z m 84.3125,0 v 11.3386 h 42.1563 v -11.3386 z m 84.3126,0 v 11.3386 h 42.1562 v -11.3386 z m 84.3125,0 v 11.3386 h 42.1563 v -11.3386 z"
         inkscape:connector-curvature="0"
         sodipodi:nodetypes="cccccccccccccccccccccccccccccc" />
    </g>
    <path
       style="fill:none;stroke:#336699;stroke-width:0.2;stroke-miterlimit:4;stroke-dasharray:none"
       id="box_back-1"
       d="M 258.80315,236.09544 H 113.80312 v -11.05 h 3 v -10.89996 h -3 v -11.10007 h 3 v -10.89998 h -3 v -11.10001 h 3 v -10.89999 h -3 v -11.05001 h 11.1038 v -3 h 11.2539 v 3 h 11.0538 v -3 h 11.2539 v 3 h 11.0538 v -3 h 11.2539 v 3 h 11.0538 v -3 h 11.2539 v 3 h 11.0538 v -3 h 11.25387 v 3 h 11.05381 v -3 h 11.25387 v 3 h 11.10382 v 11.05001 h -3 v 10.89999 h 3 v 11.10001 h -3 v 10.89998 h 3 v 11.10007 h -3 v 10.89996 h 3 z"
       inkscape:connector-curvature="0" />
    <path
       sodipodi:nodetypes="cccccccccccccccccccccccccccccccccccccccccccccccccccccccc"
       style="fill:none;stroke:#336699;stroke-width:0.2;stroke-miterlimit:4;stroke-dasharray:none"
       id="box_back-0-7-0"
       d="m 115.00692,244.30179 9.496,0.0326 c 35.1155,2.45536 0.3595,47.33364 60.1155,47.34702 60.24404,-0.0135 25,-44.89166 60.00533,-47.34702 l 9.25061,0.05 v 10.79998 h 2.99997 v 11.10001 h -2.99997 v 10.90001 h 2.99997 l 3e-5,11.09999 h -3 v 10.89998 h 2.99997 l 3e-5,11.10004 h -3 l 0.0442,11.03371 -8.14803,0.0164 v 3.00003 h -11.25384 v -3.00003 h -11.05384 v 3.00003 h -11.25393 v -3.00003 h -11.0538 v 3.00003 h -11.2538 v -3 h -11.0539 v 3 h -11.2538 v -3 h -11.0539 v 3 h -11.2539 v -3 h -11.0538 v 3 h -11.2538 v -3 l -7.9713,-0.0326 v -10.95002 h -3 l -0.022,-11.12951 3.0223,0.0295 v -10.89999 h -3 v -11.10001 h 3 v -10.89999 h -3 v -11.10001 h 3 z"
       inkscape:connector-curvature="0" />
    <g
       id="g4995"
       transform="matrix(0,-0.26458333,0.26458333,0,-166.11568,-56.252763)">
      <path
         style="fill:none;stroke:#336699;stroke-width:0.75590551;stroke-miterlimit:4;stroke-dasharray:none"
         id="path5009-2-2"
         d="m -780.27667,767.3152 h 238.11024 v 41.3858 h 11.33858 v 41.9528 h -11.33858 v 41.1969 h 11.33858 v 41.9527 h -11.33858 v 41.1969 h 11.33858 v 41.9527 h -11.33858 v 41.3858 h -28.96738 v 11.3386 h -40.87289 v -11.3386 h -40.11699 v 11.3386 h -40.87289 v -11.3386 h -40.11698 v 11.3386 h -40.87289 v -11.3386 h -28.96738 v -41.3858 h -11.33859 v -41.9527 h 11.33859 v -41.1969 h -11.33859 v -41.9527 h 11.33859 v -41.1969 h -11.33859 V 808.701 h 11.33859 v -41.3858 z"
         inkscape:connector-curvature="0" />
      <g
         id="g4572-6-9-6-8-0"
         transform="translate(-1563.5311,755.2241)"
         style="stroke:#0000ff;stroke-width:0.75590551;stroke-miterlimit:4;stroke-dasharray:none">
        <rect
           transform="rotate(90)"
           y="-790.70038"
           x="53.162495"
           height="11.338861"
           width="42.160583"
           id="rect4546-2-3-1-9-6"
           style="opacity:1;fill:none;fill-opacity:1;stroke:#0000ff;stroke-width:0.75590551;stroke-miterlimit:4;stroke-dasharray:none;stroke-opacity:1" />
        <rect
           transform="rotate(90)"
           y="-790.81378"
           x="136.41872"
           height="11.338861"
           width="42.160583"
           id="rect4546-6-9-6-8-7-1"
           style="opacity:1;fill:none;fill-opacity:1;stroke:#0000ff;stroke-width:0.75590551;stroke-miterlimit:4;stroke-dasharray:none;stroke-opacity:1" />
        <rect
           transform="rotate(90)"
           y="-790.62482"
           x="219.55257"
           height="11.338861"
           width="42.160583"
           id="rect4546-7-1-0-7-3-5"
           style="opacity:1;fill:none;fill-opacity:1;stroke:#0000ff;stroke-width:0.75590551;stroke-miterlimit:4;stroke-dasharray:none;stroke-opacity:1" />
      </g>
    </g>
    <g
       id="g20107"
       transform="translate(-71.585058,87.095422)">
      <g
         transform="matrix(0,0.26458333,-0.26458333,0,1073.6794,-948.29328)"
         id="g6826">
        <path
           inkscape:connector-curvature="0"
           d="m 3607.1557,2517.888 h 238.1103 v 41.3858 h 11.3385 v 41.9528 h -11.3385 v 41.1969 h 11.3385 v 41.9527 h -11.3385 v 41.1969 h 11.3385 v 41.9527 h -11.3385 v 41.3858 h -28.9674 v 11.3386 h -40.8729 v -11.3386 h -40.117 v 11.3386 h -40.8729 v -11.3386 h -40.117 v 11.3386 h -40.8729 v -11.3386 h -28.9673 v -41.3858 H 3573.14 v -41.9527 h 11.3386 v -41.1969 H 3573.14 v -41.9527 h 11.3386 v -41.1969 H 3573.14 v -41.9528 h 11.3386 v -41.3858 z"
           id="path5009-2-2-74"
           style="fill:none;stroke:#336699;stroke-width:0.75590551;stroke-miterlimit:4;stroke-dasharray:none" />
        <g
           style="stroke:#0000ff;stroke-width:0.75590551;stroke-miterlimit:4;stroke-dasharray:none"
           transform="translate(2823.9013,2505.7969)"
           id="g4572-6-9-6-8-0-99">
          <rect
             style="opacity:1;fill:none;fill-opacity:1;stroke:#0000ff;stroke-width:0.75590551;stroke-miterlimit:4;stroke-dasharray:none;stroke-opacity:1"
             id="rect4546-2-3-1-9-6-4"
             width="42.160583"
             height="11.338861"
             x="53.162495"
             y="-790.70038"
             transform="rotate(90)" />
          <rect
             style="opacity:1;fill:none;fill-opacity:1;stroke:#0000ff;stroke-width:0.75590551;stroke-miterlimit:4;stroke-dasharray:none;stroke-opacity:1"
             id="rect4546-6-9-6-8-7-1-5"
             width="42.160583"
             height="11.338861"
             x="136.41872"
             y="-790.81378"
             transform="rotate(90)" />
          <rect
             style="opacity:1;fill:none;fill-opacity:1;stroke:#0000ff;stroke-width:0.75590551;stroke-miterlimit:4;stroke-dasharray:none;stroke-opacity:1"
             id="rect4546-7-1-0-7-3-5-9"
             width="42.160583"
             height="11.338861"
             x="219.55257"
             y="-790.62482"
             transform="rotate(90)" />
        </g>
      </g>
      <g
         id="text5054"
         style="font-style:normal;font-variant:normal;font-weight:normal;font-stretch:normal;font-size:80px;line-height:125%;font-family:'Old London';-inkscape-font-specification:'Old London';letter-spacing:0px;word-spacing:0px;fill:#000000;fill-opacity:1;stroke:none;stroke-width:0.75590551;stroke-linecap:butt;stroke-linejoin:miter;stroke-miterlimit:4;stroke-dasharray:none;stroke-opacity:1"
         transform="matrix(0,0.26458333,-0.26458333,0,8.67e-6,18.562596)"
         aria-label="Merroid">
        <path
           id="path5592"
           style="fill:none;stroke:#ff0000;stroke-width:0.75590551;stroke-miterlimit:4;stroke-dasharray:none"
           d="m 31.04571,-1372.0919 -1.04,-1.04 q -0.96,1.12 -1.76,1.12 -1.92,0 -1.92,-4.32 v -31.12 q 0,-1.84 0.96,-3.68 0.32,-0.56 0.8,-1.28 0.56,-0.8 1.36,-1.92 l -0.88,-0.64 -3.12,2.32 -8.32,-5.68 -13.1999997,8.48 q -1.04,-5.28 -6.32,-8.72 l -14.3200003,7.76 q -9.6,5.2 -9.6,18.08 -3.84,0.48 -5.92,2.08 -2,1.52 -2.8,5.12 2.88,-0.96 4.24,-0.96 1.52,0 2.72,0.56 1.44,0.48 2.56,1.44 1.2,0.96 2,2.24 0.88,1.28 1.28,2.88 0.48,1.52 0.48,3.04 0,1.84 -0.88,3.84 -1.28,2.24 -9.68,4.08 -6.48,1.36 -6.48,9.12 h 0.48 q 1.92,-3.52 5.76,-3.52 0.4,0 0.8,0 0.48,0.08 1.04,0.16 3.04,0.4 4.72,0.64 1.68,0.24 1.84,0.24 2.88,0 5.52,-1.68 5.28,-3.2 5.28,-11.12 v -14.96 h 8.8000003 l 0.08,13.12 q 0,0.96 -0.64,1.84 -0.16,0.16 -0.48,0.56 -0.32,0.32 -0.88,0.72 v 0.64 q 1.76,1.36 3.76,3.2 2,1.84 4.32,4.32 l 11.9999997,-10.64 -1.12,-1.28 -1.84,1.36 v -13.84 l 4.16,-5.84 h -4.08 v -16.8 l 1.6,-0.8 5.76,4.24 0.08,33.76 q 0,7.6 5.84,9.84 z m -21.9999997,-23.28 h -5.12 l -0.08,-12 5.2,-3.52 z m -13.52,-13.84 -0.08,13.84 H -10.23429 l -3.2,4.72 v -13.68 q 0,-4.72 3.9200003,-8.4 5.04,0 5.04,3.52 z m 13.52,34.88 -2.56,2.32 q -2.64,-1.04 -2.64,-4.08 l 0.08,-13.44 h 5.12 z m -22.5600003,-35.92 q -1.36,2.88 -1.36,5.44 v 29.76 q 0,6.24 -5.04,6.24 -1.12,0 -3.28,-0.72 4.88,-2.72 4.88,-9.68 v -21.44 q 0,-3.52 0.96,-5.6 0.96,-2.08 3.6,-4.24 z"
           inkscape:connector-curvature="0" />
        <path
           id="path5594"
           style="fill:none;stroke:#ff0000;stroke-width:0.75590551;stroke-miterlimit:4;stroke-dasharray:none"
           d="m 57.22446,-1392.9719 -10.32,-10.32 q -2.64,1.84 -5.36,3.44 -2.64,1.6 -5.44,2.88 v 21.36 q 0,3.52 -2.24,5.84 5.68,1.04 11.04,4 l 6.96,-4.88 q 1.2,-0.88 2.24,-1.6 1.12,-0.72 2.16,-1.36 l -0.88,-0.96 -5.28,3.36 -6.72,-2.96 v -8.32 q 5.04,-4.32 13.84,-10.48 z m -6.32,2.64 -7.6,6 v -13.76 z"
           inkscape:connector-curvature="0" />
        <path
           id="path5596"
           style="fill:none;stroke:#ff0000;stroke-width:0.75590551;stroke-miterlimit:4;stroke-dasharray:none"
           d="m 84.83821,-1397.5319 -5.2,-5.68 -8.08,6.16 q -0.32,-2.48 -1.6,-3.84 -0.96,-1.12 -3.44,-2.4 l -6.8,6 0.88,0.88 1.36,-0.88 q 1.92,1.6 1.92,3.68 v 16.08 q 0,4 -2.16,5.76 5.76,2.24 10.24,6.08 l 7.28,-6.24 -0.96,-0.96 -2.32,1.68 -4.32,-3.36 v -20.72 l 3.12,-2.4 4.8,4.72 z"
           inkscape:connector-curvature="0" />
        <path
           id="path5598"
           style="fill:none;stroke:#ff0000;stroke-width:0.75590551;stroke-miterlimit:4;stroke-dasharray:none"
           d="m 111.08821,-1397.5319 -5.2,-5.68 -8.08,6.16 q -0.32,-2.48 -1.6,-3.84 -0.96,-1.12 -3.44,-2.4 l -6.8,6 0.88,0.88 1.36,-0.88 q 1.92,1.6 1.92,3.68 v 16.08 q 0,4 -2.16,5.76 5.76,2.24 10.24,6.08 l 7.28,-6.24 -0.96,-0.96 -2.32,1.68 -4.32,-3.36 v -20.72 l 3.12,-2.4 4.8,4.72 z"
           inkscape:connector-curvature="0" />
        <path
           id="path5600"
           style="fill:none;stroke:#ff0000;stroke-width:0.75590551;stroke-miterlimit:4;stroke-dasharray:none"
           d="m 138.45821,-1371.6119 v -26.08 q -5.2,-0.72 -12.72,-5.6 -4.96,4.64 -11.36,6.4 v 18.96 q 0,4.4 -2.16,6.16 8.08,1.68 14.4,6.32 4.8,-4.08 11.84,-6.16 z m -7.52,-0.16 q -1.44,-0.4 -3.52,-1.2 -1.52,-0.56 -2.96,-1.12 -1.36,-0.56 -2.72,-1.12 v -22.08 l 9.2,3.52 z"
           inkscape:connector-curvature="0" />
        <path
           id="path5602"
           style="fill:none;stroke:#ff0000;stroke-width:0.75590551;stroke-miterlimit:4;stroke-dasharray:none"
           d="m 155.55571,-1415.0519 h -5.92 l -1.92,8.16 h 1.04 z m 2.08,43.6 -0.8,-0.72 -1.44,0.96 q -1.84,-0.96 -2.24,-2.56 v -22.16 l 2,-2.24 -6.16,-5.12 -5.92,4.88 2.32,2.48 v 20.88 l -0.08,1.44 q -0.4,5.2 5.04,8.08 z"
           inkscape:connector-curvature="0" />
        <path
           id="path5604"
           style="fill:none;stroke:#ff0000;stroke-width:0.75590551;stroke-miterlimit:4;stroke-dasharray:none"
           d="m 188.10321,-1397.9319 q 0,-1.68 0.64,-3.44 -2.16,0.88 -3.2,2.64 l -24.32,-15.52 v 7.6 l 10.16,6.56 q -2.24,1.12 -4.08,1.92 -1.76,0.72 -3.2,1.12 v 19.12 q 0,4.16 -2.24,6.16 8,1.68 14.4,6.32 4.8,-3.84 11.84,-6.16 z m -7.6,26.16 -8.96,-3.2 v -21.84 l 2.64,-1.6 6.32,4.24 z"
           inkscape:connector-curvature="0" />
      </g>
    </g>
    <g
       transform="matrix(0,0.26458333,-0.26458333,0,237.54062,6.9954274)"
       id="g23478">
      <path
         inkscape:connector-curvature="0"
         d="m 0.37792,466.91332 v -548.0316 h 41.7638 v 11.3386 h 41.1968 v -11.3386 h 41.9528 v 11.3386 h 41.1968 v -11.3386 h 41.9528 v 11.3386 h 41.1968 v -11.3386 h 41.7638 v 41.9673 h 11.3386 v 42.5342 h -11.3386 v 41.7783 h 11.3386 v 42.5343 h -11.3386 v 41.7784 h 11.3386 v 42.5342 h -11.3386 v 41.7783 h 11.3386 v 42.5342 h -11.3386 v 41.7783 h 11.3386 v 42.5343 h -11.3386 v 41.7783 h 11.3386 v 42.5342 h -11.3386 v 41.9673 h -41.7638 v -11.3386 h -41.1968 v 11.3386 h -41.9528 v -11.3386 h -41.1968 v 11.3386 h -41.9528 v -11.3386 h -41.1968 v 11.3386 z"
         id="box_back-1-5"
         style="fill:none;stroke:#336699;stroke-width:0.75590551;stroke-miterlimit:4;stroke-dasharray:none" />
      <g
         style="fill:none;stroke:#ff0000;stroke-width:8.50393677;stroke-miterlimit:4;stroke-dasharray:none"
         transform="matrix(0,-0.10803286,-0.10803286,0,292.57312,356.62313)"
         id="g14359">
        <path
           style="fill:none;stroke:#ff0000;stroke-width:8.50393677;stroke-miterlimit:4;stroke-dasharray:none"
           inkscape:connector-curvature="0"
           d="m 750,2628 c 0,-13 -4,-30 -10,-38 -5,-9 -5,-17 1,-20 5,-4 3,-25 -6,-56 -9,-30 -11,-50 -5,-52 14,-5 13,-89 -1,-98 -9,-5 -10,3 -5,28 5,28 3,37 -10,42 -13,5 -14,1 -9,-26 6,-26 5,-30 -9,-25 -9,4 -16,2 -16,-3 0,-6 5,-10 11,-10 11,0 8,-87 -7,-173 -3,-21 -1,-57 5,-80 14,-52 22,-201 10,-172 -7,15 -8,10 -4,-15 3,-19 8,-62 11,-95 4,-36 12,-65 22,-72 13,-11 13,-13 1,-13 -8,0 -10,-3 -4,-8 6,-4 16,-19 22,-34 10,-22 10,-28 0,-28 -20,1 -49,27 -37,35 11,7 4,25 -11,25 -5,0 -9,-12 -9,-26 0,-22 -2,-25 -15,-14 -8,7 -15,17 -15,23 0,6 -8,19 -17,30 -10,11 -12,17 -5,13 6,-4 12,-2 12,4 0,13 -110,150 -121,150 -11,0 -99,81 -99,92 0,5 -9,22 -20,38 -11,15 -16,31 -12,35 4,4 0,6 -8,4 -19,-4 -60,22 -60,38 0,7 -7,10 -15,7 -8,-4 -21,-2 -28,4 -6,6 -16,12 -22,13 -5,1 -19,14 -30,28 -11,14 -26,31 -35,38 -8,6 -24,18 -35,26 -16,12 -17,18 -7,30 9,10 10,17 2,22 -16,10 -28,-2 -25,-27 1,-13 3,-29 4,-36 0,-8 43,-58 94,-112 171,-181 243,-265 257,-300 21,-53 100,-188 150,-255 68,-92 243,-268 363,-363 59,-47 107,-90 107,-96 0,-28 -33,-115 -56,-150 -26,-38 -26,-42 -22,-170 4,-102 10,-145 27,-196 60,-171 56,-322 -11,-476 -5,-11 -11,-32 -12,-46 -2,-20 1,-26 15,-25 10,1 21,7 24,15 3,7 9,10 15,7 5,-3 14,4 19,17 10,27 61,77 61,60 0,-6 -5,-23 -12,-37 -9,-20 -9,-28 2,-38 10,-9 11,-9 6,0 -4,7 0,28 8,47 8,19 11,37 8,41 -4,4 -7,38 -7,75 0,58 -3,72 -20,84 -14,10 -21,11 -24,3 -2,-6 1,-13 8,-15 17,-6 13,-53 -6,-76 -17,-20 -17,-20 1,-6 18,14 19,13 11,-15 -4,-16 -8,-38 -9,-47 0,-21 2,-21 -30,-8 -28,10 -33,29 -14,48 6,6 13,22 15,34 2,13 9,48 15,78 18,84 16,117 -19,221 -17,52 -34,111 -38,130 -9,47 -13,196 -8,242 l 5,37 24,-25 c 13,-14 24,-30 24,-36 0,-5 7,-9 15,-9 8,0 15,5 15,12 0,6 -3,8 -7,5 -11,-11 -38,36 -39,68 -1,40 23,88 39,78 7,-4 6,0 -2,10 -8,10 -12,20 -9,22 8,8 38,-6 38,-17 0,-6 11,-21 25,-34 14,-13 25,-26 25,-29 0,-4 6,-13 13,-20 38,-44 40,-47 27,-55 -10,-6 -9,-9 1,-13 11,-3 9,-9 -6,-21 -11,-8 -26,-13 -32,-11 -7,2 -13,0 -13,-5 0,-6 9,-10 21,-10 11,0 18,-4 14,-9 -3,-5 -1,-12 5,-16 5,-3 10,-19 10,-35 0,-16 5,-32 11,-36 7,-4 8,-28 4,-68 -3,-33 -8,-79 -11,-101 -3,-32 1,-45 21,-68 13,-15 29,-27 35,-27 6,0 8,-5 5,-10 -4,-6 -3,-10 2,-9 24,4 53,-2 48,-10 -3,-5 0,-13 6,-17 8,-4 9,-3 5,5 -4,6 0,14 10,18 12,4 27,-5 51,-30 18,-20 33,-41 33,-47 0,-11 -48,-3 -66,12 -6,4 -19,6 -28,2 -12,-5 -15,-2 -10,12 4,14 3,16 -4,5 -5,-7 -15,-10 -21,-6 -8,5 -10,-1 -6,-18 5,-20 3,-25 -11,-24 -16,2 -18,-6 -16,-72 2,-41 7,-83 13,-92 14,-27 0,-159 -17,-159 -10,0 -14,13 -14,39 0,22 -2,46 -5,53 -4,9 4,20 17,26 22,12 22,12 -4,7 -27,-5 -28,-4 -29,37 -1,63 -12,94 -32,90 -9,-2 -17,3 -17,9 0,7 -3,10 -6,6 -3,-3 2,-19 12,-35 11,-19 14,-36 9,-48 -4,-11 -7,-32 -5,-49 1,-23 -1,-27 -12,-18 -10,9 -13,3 -14,-33 -2,-47 -16,-71 -49,-84 -17,-8 -16,-9 10,-9 27,-1 33,4 45,37 8,20 13,42 12,49 -2,8 8,11 27,10 16,-1 29,-4 29,-7 -4,-53 4,-81 25,-89 12,-5 23,-7 25,-6 2,1 5,26 7,55 1,29 8,57 13,62 7,7 6,23 -3,49 -8,21 -12,51 -11,66 2,15 4,40 5,54 2,41 61,94 61,54 0,-13 19,-20 43,-16 5,1 7,-9 5,-21 -2,-13 -11,-24 -22,-26 -10,-2 -16,0 -13,5 3,4 -1,14 -9,21 -21,19 -17,-3 6,-29 18,-21 21,-22 32,-9 7,9 22,14 33,12 29,-6 76,24 108,68 29,41 32,50 18,50 -5,0 -19,-15 -31,-33 l -22,-32 6,35 c 4,23 22,51 53,82 26,26 49,46 51,43 2,-2 -7,-24 -21,-49 -14,-26 -22,-46 -18,-46 13,0 -5,-92 -20,-104 -12,-10 -23,-76 -13,-76 2,0 10,14 17,31 12,30 14,31 30,15 20,-20 22,-14 5,13 -9,15 -9,29 2,63 7,23 14,54 14,68 1,32 30,39 33,8 0,-13 4,-43 7,-68 l 6,-45 -14,40 -14,40 -1,-37 c -1,-20 6,-43 14,-52 9,-8 11,-17 6,-21 -5,-3 -12,-1 -16,5 -12,19 -26,11 -16,-9 12,-22 -9,-37 -28,-18 -8,8 -11,5 -11,-10 0,-12 -6,-23 -12,-26 -7,-2 -10,-8 -6,-12 4,-4 20,1 35,11 46,30 68,28 65,-6 0,-3 8,-6 19,-6 10,0 19,3 19,7 0,4 3,14 6,23 3,9 1,16 -5,16 -6,0 -11,-7 -11,-16 0,-8 -4,-12 -10,-9 -25,15 -5,65 26,65 12,0 24,-54 14,-64 -18,-18 -10,-30 9,-12 19,18 21,44 6,116 -6,32 -5,36 16,37 45,4 52,23 34,93 -15,59 -58,141 -77,148 -4,2 -6,7 -3,12 3,5 -12,14 -32,21 -39,12 -126,69 -119,77 3,2 20,-8 39,-22 75,-58 208,-73 289,-34 22,11 42,17 46,14 3,-3 -7,-36 -21,-73 -15,-38 -28,-85 -29,-105 -2,-21 -5,-38 -8,-38 -3,0 -11,-14 -19,-31 -12,-27 -11,-33 2,-46 8,-9 27,-15 41,-15 14,0 25,-3 24,-7 -3,-20 16,-71 27,-71 7,0 18,-6 24,-14 7,-8 22,-13 34,-10 48,7 121,24 125,28 5,6 -26,63 -54,97 -23,30 -49,139 -39,169 5,17 2,20 -24,20 -17,0 -31,5 -31,10 0,6 -5,10 -11,10 -5,0 -7,-5 -3,-12 5,-8 2,-9 -9,-5 -10,3 -17,4 -17,1 0,-2 11,-9 25,-14 18,-7 23,-14 18,-26 -5,-13 -2,-16 9,-11 12,4 17,-4 22,-35 7,-44 -7,-75 -23,-49 -6,9 -10,4 -13,-18 -2,-17 -1,-31 4,-31 13,0 9,-28 -4,-33 -8,-3 -6,-6 4,-6 17,-1 48,-75 36,-86 -10,-10 -59,18 -54,31 3,8 1,16 -4,19 -5,3 -7,12 -3,20 3,8 1,15 -4,15 -5,0 -10,8 -10,18 1,9 0,35 -2,57 -2,37 -3,39 -16,21 -8,-11 -15,-28 -15,-38 0,-21 -23,-34 -40,-23 -8,5 -7,14 4,29 8,13 19,43 26,67 6,24 15,53 20,64 4,11 11,28 14,37 6,19 51,25 61,8 8,-13 35,-13 35,1 0,5 -4,8 -9,4 -5,-3 -12,-1 -16,5 -3,5 -2,10 4,10 5,0 17,3 25,6 12,5 15,2 10,-12 -4,-14 -3,-16 4,-5 8,11 20,10 71,-10 33,-13 61,-27 61,-30 0,-3 24,-2 53,2 101,13 181,73 158,117 -12,23 -5,32 24,32 18,0 25,-9 34,-44 15,-59 14,-67 -10,-95 -19,-23 -22,-24 -47,-10 -15,9 -35,14 -44,12 -22,-5 -24,-46 -3,-63 10,-8 12,-17 6,-29 -7,-12 -2,-25 17,-47 24,-27 33,-30 85,-30 58,1 65,4 47,22 -7,7 -5,17 5,30 14,18 14,18 15,-8 0,-41 0,-42 17,-60 13,-15 12,-18 -12,-34 -26,-17 -28,-17 -41,1 -8,10 -17,16 -21,12 -10,-11 26,-44 46,-43 26,1 103,86 110,121 11,53 3,175 -15,225 -22,63 -25,200 -6,265 l 12,40 59,1 c 54,0 64,4 116,43 31,23 61,53 67,67 10,21 18,24 61,24 28,0 47,3 43,7 -4,4 -25,6 -48,4 -35,-2 -40,0 -34,15 15,38 25,105 37,235 15,167 3,274 -44,394 -54,138 -186,316 -255,344 -50,21 -48,40 14,161 62,119 60,105 25,205 -6,17 -13,42 -15,56 -5,23 -10,25 -51,25 -45,-1 -45,-1 -46,-36 -1,-49 -4,-61 -25,-102 -44,-83 -177,-207 -256,-237 -13,-5 -70,-11 -127,-15 -167,-10 -171,-34 -4,-27 68,3 105,-8 63,-20 -22,-6 -23,-7 -4,-8 12,-1 27,6 34,14 7,8 23,15 37,15 13,0 38,12 55,28 53,47 169,166 195,200 24,31 27,32 44,16 23,-21 25,-7 2,18 -19,22 -1,25 21,3 16,-17 36,-20 36,-6 0,9 -26,23 -44,25 -5,1 -10,9 -12,18 -1,9 3,15 9,12 8,-3 12,10 12,38 -1,52 2,59 20,52 16,-6 39,-100 28,-117 -4,-6 0,-8 10,-4 11,4 17,1 17,-7 0,-21 -66,-157 -73,-150 -3,3 -9,-7 -12,-22 -3,-16 -15,-46 -26,-67 -11,-21 -17,-42 -13,-45 4,-4 9,-1 11,6 3,6 8,10 12,7 7,-4 -6,-103 -15,-114 -2,-2 -10,2 -19,9 -11,9 -15,9 -15,1 0,-6 7,-14 15,-17 23,-9 -1,-33 -25,-27 -11,3 -20,1 -20,-5 0,-15 42,-11 63,6 21,19 32,10 19,-15 -5,-10 -12,-46 -15,-80 -8,-80 -27,-126 -46,-114 -12,8 -12,12 -2,25 11,13 11,16 -3,16 -9,0 -17,-4 -17,-10 -1,-5 -2,-14 -3,-19 0,-5 -4,-13 -9,-17 -13,-13 -7,-44 8,-44 18,0 20,-16 3,-26 -7,-5 -9,-2 -3,7 4,8 -5,1 -19,-16 -21,-24 -26,-26 -22,-10 2,11 7,34 10,50 5,29 5,29 -5,5 -6,-14 -15,-32 -19,-41 -11,-21 10,-63 34,-67 11,-3 16,0 11,7 -3,6 -11,9 -16,6 -15,-10 -10,5 10,26 25,27 33,12 20,-36 -8,-28 -8,-40 1,-45 9,-6 9,-13 1,-29 -19,-35 -51,-24 -55,18 -3,24 -28,104 -37,117 -5,6 -17,38 -28,72 -18,59 -18,62 -1,62 10,0 21,6 23,13 4,9 8,9 16,-3 5,-8 7,-18 5,-22 -3,-4 0,-8 7,-8 7,0 9,-10 7,-25 -3,-14 -1,-28 4,-31 16,-10 4,80 -12,93 -13,10 -12,15 5,40 25,34 33,143 15,200 -14,42 -45,82 -63,79 -20,-3 -38,-17 -32,-26 3,-4 -1,-10 -9,-13 -8,-3 -17,-19 -21,-36 -4,-20 -11,-28 -21,-24 -8,3 -14,0 -14,-6 0,-6 3,-10 8,-10 18,3 20,-3 12,-31 -5,-19 -5,-28 1,-25 5,4 9,2 9,-4 0,-7 8,-7 26,0 30,11 43,4 26,-13 -22,-22 -14,-44 16,-43 21,0 28,-5 30,-22 2,-13 -1,-23 -7,-23 -6,0 -11,7 -11,16 0,9 -6,14 -12,11 -7,-2 -11,-15 -10,-28 3,-20 1,-22 -10,-11 -13,13 -14,16 -16,65 -2,23 -6,27 -20,23 -12,-4 -26,1 -37,14 -14,16 -20,17 -26,8 -6,-10 -11,-10 -20,-1 -6,6 -18,9 -25,6 -8,-3 -22,1 -30,8 -9,8 -42,21 -73,30 -48,14 -56,19 -53,37 2,12 -1,22 -6,22 -5,0 -9,-8 -8,-17 0,-10 -6,-18 -14,-18 -9,0 -15,9 -14,22 0,18 -2,20 -13,12 -20,-17 -99,-12 -130,8 l -28,17 18,-21 c 11,-12 37,-25 60,-28 22,-4 81,-23 131,-42 50,-19 118,-45 151,-57 33,-12 70,-28 82,-34 18,-10 22,-9 25,6 3,14 5,13 10,-6 4,-14 2,-20 -5,-15 -7,4 -8,0 -3,-13 5,-10 21,-63 37,-117 16,-55 36,-112 44,-127 8,-15 18,-47 21,-71 4,-24 14,-54 22,-67 8,-12 11,-26 7,-30 -4,-4 -15,4 -24,18 -90,136 -196,232 -325,296 -81,40 -122,41 -122,4 0,-11 5,-20 11,-21 5,0 30,-2 55,-3 69,-5 72,-5 64,-18 -4,-6 -3,-8 3,-5 33,21 192,-111 260,-217 57,-88 68,-115 48,-122 -11,-5 -12,-11 -5,-24 6,-10 10,-28 10,-40 0,-11 7,-23 15,-26 8,-4 15,-12 15,-20 0,-8 5,-14 10,-14 6,0 10,8 8,18 -2,9 2,16 9,15 8,-2 10,4 6,15 -4,11 -3,14 4,7 11,-12 73,-175 73,-194 0,-7 4,-10 9,-7 4,3 21,-9 36,-26 26,-29 29,-30 36,-12 4,10 8,55 8,99 l 1,80 -60,56 c -33,31 -60,61 -60,66 0,6 7,24 15,39 20,39 19,84 -5,139 -21,48 -28,149 -11,159 14,9 90,-100 133,-192 51,-107 66,-170 74,-297 7,-98 6,-101 -20,-131 -28,-34 -78,-49 -108,-32 -20,10 -24,-2 -6,-20 17,-17 78,-15 100,5 10,9 18,12 18,6 0,-19 -26,-44 -55,-53 -28,-9 -27,-9 9,-4 26,4 42,1 47,-7 12,-20 22,36 10,58 -7,15 -5,26 10,49 17,25 19,40 13,114 -3,47 -7,108 -9,135 -3,41 -49,164 -83,219 -3,5 0,6 6,2 7,-4 12,-2 12,5 0,13 -30,55 -80,109 -46,51 -55,70 -33,71 10,1 25,0 33,-1 9,-1 6,6 -9,19 -26,22 -26,20 5,111 5,13 4,13 -5,0 -7,-9 -11,-10 -11,-3 0,6 4,14 9,17 16,10 11,76 -6,76 -9,0 -11,5 -6,13 4,6 6,22 5,34 -2,11 2,24 7,28 6,3 11,1 11,-5 0,-7 6,-10 14,-7 19,8 68,-31 59,-46 -3,-7 -2,-9 2,-4 9,7 45,-20 45,-34 0,-5 9,-19 21,-31 90,-99 169,-303 169,-436 -1,-53 -3,-63 -12,-48 -9,16 -16,64 -18,131 0,17 -2,17 -10,5 -7,-11 -10,-6 -10,20 -1,30 -38,122 -40,95 0,-5 -15,5 -32,23 -63,61 -89,82 -104,82 -8,0 -13,4 -10,8 2,4 -10,9 -27,10 l -32,2 45,-27 c 89,-54 111,-75 97,-92 -8,-9 -8,-12 -1,-8 16,9 66,-58 69,-93 1,-15 12,-47 24,-72 12,-25 24,-69 28,-98 3,-28 9,-47 12,-42 3,6 7,-33 9,-85 3,-80 0,-98 -15,-116 -18,-21 -18,-21 1,-7 18,14 19,13 13,-3 -4,-10 -14,-42 -22,-71 -15,-50 -25,-63 -99,-125 -13,-10 -17,-11 -11,-2 5,9 0,8 -18,-3 -14,-10 -45,-18 -69,-19 -23,-1 -46,-6 -49,-10 -8,-11 -60,13 -53,24 3,5 -1,6 -9,3 -19,-7 -88,72 -117,134 -13,26 -42,97 -65,158 -51,133 -70,167 -151,266 -61,74 -145,135 -166,122 -7,-4 -4,-10 5,-16 9,-5 14,-15 11,-23 -4,-8 -1,-15 6,-15 6,0 8,-4 5,-10 -3,-5 -1,-10 4,-10 16,0 13,-58 -4,-105 l -14,-40 -1,46 c 0,33 -5,49 -16,53 -8,3 -12,2 -9,-4 3,-5 7,-26 10,-47 2,-21 7,-58 10,-83 4,-30 1,-58 -9,-85 l -16,-40 6,76 c 5,72 4,80 -22,120 -27,45 -41,59 -58,59 -6,0 4,-15 22,-33 35,-36 44,-61 12,-32 -20,18 -26,18 -115,4 -58,-9 -98,-12 -104,-6 -5,5 -15,6 -23,1 -14,-9 -25,-12 -73,-19 -16,-3 -43,-8 -60,-12 -16,-4 -37,-6 -44,-4 -8,2 -21,-5 -28,-15 -8,-11 -13,-13 -13,-5 0,7 16,28 37,45 23,21 33,38 28,45 -10,18 -88,-66 -80,-87 3,-8 0,-21 -7,-29 -17,-21 -18,-52 -1,-46 7,3 11,13 8,22 -3,11 5,25 25,39 35,26 49,28 28,5 -24,-30 -40,-73 -25,-73 9,0 9,-3 -1,-9 -7,-4 -19,-20 -27,-34 -11,-22 -11,-28 1,-38 8,-6 14,-18 14,-25 0,-16 32,-72 41,-70 3,1 20,-11 38,-27 35,-29 34,-29 73,-31 21,-2 25,1 16,11 -12,15 -32,18 -23,3 13,-20 -15,-9 -57,23 -24,19 -42,41 -42,50 1,9 -2,15 -6,12 -8,-5 -50,58 -50,75 0,5 7,7 15,4 8,-4 15,-10 15,-15 0,-6 5,-15 10,-22 6,-7 20,-24 31,-40 11,-15 25,-24 31,-21 7,4 8,2 4,-4 -8,-14 50,-46 66,-36 7,5 8,3 3,-6 -6,-10 -4,-12 8,-7 10,3 17,2 17,-2 0,-5 24,-9 54,-10 43,0 59,5 82,24 19,16 24,25 14,25 -12,0 -13,2 -1,9 7,5 22,6 33,3 18,-4 18,-5 1,-21 -36,-33 -81,-61 -100,-61 -10,-1 0,-7 22,-15 35,-13 41,-12 57,2 9,8 24,13 32,10 8,-3 20,1 26,9 7,8 18,14 25,14 7,0 19,8 26,18 13,15 12,16 -3,3 -24,-18 -22,-8 6,33 13,19 27,32 30,28 4,-3 4,2 1,13 -7,20 -6,20 9,1 13,-17 16,-17 16,-4 0,9 -5,18 -11,20 -7,2 -5,18 6,46 18,44 38,51 43,15 2,-12 12,-29 22,-38 15,-14 17,-22 8,-43 -6,-15 -11,-65 -13,-112 -2,-51 -7,-86 -14,-88 -6,-2 -9,-8 -6,-13 3,-4 -1,-19 -10,-32 -8,-13 -13,-31 -10,-39 3,-8 -15,-42 -43,-79 -27,-35 -47,-69 -45,-75 5,-15 -36,-66 -48,-59 -5,4 -9,0 -9,-8 0,-17 -19,-26 -37,-20 -8,3 -4,12 11,26 18,17 22,27 16,47 -7,23 -8,23 -9,-8 -1,-25 -6,-35 -21,-39 -25,-7 -25,-14 1,-36 20,-18 22,-17 62,19 101,91 153,186 172,318 5,31 11,44 17,38 7,-7 6,-40 -3,-97 -8,-58 -15,-82 -22,-73 -6,9 -7,7 -3,-6 4,-11 0,-24 -11,-33 -10,-8 -12,-12 -5,-8 17,9 15,-10 -8,-55 -36,-71 -179,-163 -194,-124 -3,8 -16,14 -30,14 -16,0 -23,5 -22,16 0,9 -4,19 -11,21 -7,3 -10,-4 -6,-19 4,-22 3,-22 -21,5 -14,15 -26,24 -26,18 0,-16 -59,22 -66,42 -3,9 -9,17 -14,17 -4,0 -21,13 -36,29 -15,17 -31,28 -36,25 -4,-3 -5,2 -2,10 4,11 0,16 -15,16 -12,0 -21,5 -21,11 0,5 5,7 10,4 6,-3 10,-4 10,-1 0,3 -17,14 -37,23 -20,10 -39,24 -41,31 -3,11 0,12 19,2 16,-8 12,-2 -10,16 -18,15 -43,37 -55,49 -12,12 -29,26 -38,31 -12,7 -14,14 -8,24 9,13 11,13 19,0 6,-8 13,-11 17,-7 4,4 -6,18 -21,32 -16,13 -26,27 -22,31 4,4 15,0 25,-9 10,-10 22,-17 27,-17 5,0 -1,9 -12,20 -12,10 -24,28 -28,40 -3,11 -11,20 -17,20 -6,0 -8,3 -5,6 4,4 13,1 22,-6 18,-15 20,1 3,18 -9,9 -9,12 0,12 6,0 9,7 6,15 -6,14 -8,13 -19,-2 -12,-16 -14,-14 -20,22 -7,40 -30,133 -41,167 -3,10 -1,18 3,18 5,0 20,-34 32,-74 28,-90 38,-105 72,-108 16,-1 25,-7 22,-14 -2,-6 17,-29 44,-50 26,-22 53,-44 58,-51 14,-16 86,-63 97,-63 5,0 6,6 2,13 -4,6 3,3 16,-8 13,-11 20,-15 17,-9 -4,7 0,15 9,18 8,3 12,2 9,-4 -3,-6 -2,-10 4,-10 5,0 11,6 14,13 6,17 37,-60 37,-94 0,-26 -3,-28 -47,-31 -36,-2 -58,3 -88,21 -46,27 -105,80 -105,95 0,5 15,-3 33,-20 43,-39 75,-56 82,-44 3,6 2,10 -3,10 -6,0 -33,15 -61,34 -28,19 -51,32 -51,29 0,-3 -7,0 -15,7 -8,7 -12,17 -8,23 3,6 1,7 -6,3 -6,-4 -14,0 -17,9 -11,27 0,25 36,-5 19,-17 39,-30 45,-30 5,0 0,7 -12,15 -12,8 -47,43 -79,77 -31,35 -47,48 -34,29 13,-18 24,-48 25,-66 2,-17 10,-43 19,-57 9,-13 14,-27 11,-30 -3,-3 22,-29 55,-58 55,-48 112,-78 148,-80 10,0 74,25 88,34 1,1 -2,27 -5,59 -8,62 -5,70 9,32 5,-14 15,-25 22,-25 9,0 9,3 0,12 -7,7 -12,18 -12,26 0,24 -24,37 -75,41 -61,4 -87,13 -150,56 -52,34 -101,89 -124,140 -23,52 -29,60 -40,58 -6,-2 -12,4 -12,12 -3,28 -4,33 -11,41 -12,11 -8,-17 7,-56 7,-19 14,-28 14,-20 1,11 4,11 13,2 10,-10 10,-15 -1,-21 -11,-7 -9,-13 8,-30 11,-11 17,-21 13,-21 -25,0 -68,89 -85,178 -6,31 6,45 16,20 3,-7 6,-3 6,8 1,12 8,27 16,34 8,7 15,20 14,29 0,10 -2,12 -6,3 -2,-6 -10,-9 -15,-6 -6,4 -8,2 -5,-3 4,-6 0,-13 -8,-17 -16,-6 -21,13 -7,29 4,6 4,8 0,5 -10,-7 -88,-159 -105,-205 -9,-26 -14,-75 -14,-138 0,-87 3,-103 27,-145 55,-96 52,-93 79,-80 18,8 22,14 13,19 -7,4 -18,3 -25,-3 -10,-8 -12,-4 -7,21 5,26 3,31 -12,31 -11,0 -25,9 -32,20 -11,18 -9,21 20,34 l 33,15 -31,-6 c -29,-5 -32,-3 -37,29 -2,18 -1,39 2,46 4,8 5,34 1,58 -6,38 -4,47 12,55 10,5 18,15 18,22 0,7 -4,6 -10,-3 -8,-12 -10,-11 -10,7 0,12 5,23 10,25 6,2 12,13 13,26 0,12 4,22 8,22 8,0 16,-29 25,-95 3,-27 10,-57 14,-66 5,-8 5,-21 0,-29 -5,-9 -5,-17 1,-20 5,-4 12,-30 16,-60 5,-45 3,-55 -12,-66 -17,-13 -17,-14 -2,-14 9,0 17,-7 17,-15 0,-8 4,-15 9,-15 4,0 6,-11 4,-24 -4,-17 -14,-27 -33,-31 -22,-5 -27,-11 -23,-26 3,-11 -2,-28 -12,-39 -10,-11 -15,-26 -11,-36 3,-9 1,-22 -5,-30 -17,-21 -23,-155 -9,-260 6,-53 14,-103 17,-111 9,-23 -22,-14 -67,18 l -43,31 6,92 c 5,63 2,112 -8,160 -17,80 -7,100 31,65 18,-16 26,-19 42,-10 11,6 23,18 26,27 5,14 4,15 -9,4 -13,-11 -20,-9 -42,11 -22,20 -25,21 -19,5 6,-16 4,-17 -9,-6 -9,7 -14,19 -11,27 3,8 1,11 -4,8 -6,-3 -10,-2 -10,3 0,5 -13,29 -29,53 -16,24 -27,47 -24,53 3,5 2,6 -4,3 -5,-3 -27,12 -48,33 -44,45 -37,54 9,13 17,-14 -3,7 -44,49 -42,41 -105,94 -140,118 -147,100 -357,326 -407,440 -14,30 -28,57 -32,60 -4,3 -11,14 -14,25 -6,17 -5,18 5,4 11,-13 48,-23 48,-13 0,1 -14,17 -31,34 -17,17 -29,24 -26,15 4,-8 2,-15 -3,-15 -10,0 -14,14 -11,39 2,7 -2,10 -8,6 -6,-3 -11,-1 -11,5 0,6 -30,44 -67,85 -68,74 -139,161 -113,138 8,-7 19,-13 25,-13 5,1 -8,17 -30,36 -38,34 -38,35 -8,18 18,-10 52,-35 75,-57 32,-29 35,-33 11,-18 -17,12 -34,21 -38,21 -9,0 104,-136 149,-179 53,-51 44,-25 -11,34 -40,41 -41,43 -7,12 22,-20 44,-34 48,-30 4,5 6,3 4,-3 -2,-6 13,-33 32,-60 19,-26 43,-62 54,-79 l 18,-30 -20,18 c -14,13 -22,15 -27,7 -4,-7 -2,-17 5,-23 10,-9 11,-9 5,2 -5,10 -4,12 4,7 6,-4 9,-11 6,-16 -7,-12 21,-61 30,-52 5,4 6,0 3,-9 -4,-9 -2,-22 4,-30 7,-11 8,-9 3,6 -5,16 0,14 24,-9 17,-16 28,-33 25,-38 -3,-4 0,-8 5,-8 6,0 11,-6 11,-12 1,-20 33,-55 58,-63 18,-5 22,-2 22,14 0,12 -5,21 -11,21 -6,0 -8,7 -5,16 4,10 -1,25 -10,35 -31,34 -1,20 40,-18 l 40,-38 -44,51 c -35,39 -45,59 -46,90 -1,21 -7,65 -13,97 -6,32 -9,63 -5,68 3,6 25,-16 47,-49 23,-32 101,-126 174,-208 73,-82 147,-168 164,-191 18,-23 35,-41 37,-38 5,4 -62,89 -146,186 -152,176 -226,268 -248,311 -15,29 -29,86 -39,150 -8,57 -17,119 -21,139 -4,22 3,72 19,140 20,82 26,132 26,237 1,72 -1,132 -4,132 -3,0 -5,-10 -5,-22 z m -21,-285 c 0,-5 -4,-17 -9,-28 -8,-18 -9,-17 -9,8 -1,15 4,27 9,27 6,0 10,-3 9,-7 z m 1694,-181 c 3,7 6,-4 6,-26 1,-31 -2,-36 -12,-27 -8,6 -16,8 -19,5 -9,-8 -19,46 -12,58 5,7 11,5 20,-6 9,-13 13,-14 17,-4 z m -44,-40 c 8,-16 5,-62 -4,-62 -15,0 -35,15 -35,26 0,8 6,11 15,8 17,-7 21,11 5,21 -5,3 -10,10 -10,16 0,16 19,10 29,-9 z m 68,-59 c -3,-3 -11,-2 -17,2 -8,5 -7,11 2,22 12,15 13,14 16,-1 2,-10 1,-20 -1,-23 z m 3,-28 c 0,-25 -4,-30 -20,-26 -20,4 -21,6 -14,25 8,20 34,21 34,1 z m 67,-237 c -3,-8 -6,-5 -6,6 -1,11 2,17 5,13 3,-3 4,-12 1,-19 z m 293,-18 c 0,-5 -2,-10 -4,-10 -3,0 -8,5 -11,10 -3,6 -1,10 4,10 6,0 11,-4 11,-10 z m 49,-64 c 7,-8 8,-17 3,-20 -6,-3 -12,3 -15,14 -6,24 -4,25 12,6 z m -699,-26 c 11,-6 17,-17 14,-25 -4,-8 -1,-15 6,-15 6,0 8,-5 4,-12 -5,-8 -11,-6 -19,5 -7,9 -16,13 -20,9 -5,-4 -5,-1 -1,6 4,7 2,19 -4,27 -14,17 -6,19 20,5 z M 741,1647 c -4,-4 -15,-5 -24,-1 -17,6 -22,25 -10,37 9,10 42,-26 34,-36 z m -51,23 c 0,-5 -2,-10 -4,-10 -3,0 -8,5 -11,10 -3,6 -1,10 4,10 6,0 11,-4 11,-10 z m 1854,-169 c -26,-69 -57,-111 -82,-111 -11,0 -13,9 -9,38 14,83 28,137 36,140 20,7 52,41 50,54 -5,40 5,36 16,-6 13,-46 12,-53 -11,-115 z M 752,1611 c -2,-13 4,-29 15,-38 17,-14 17,-14 0,-9 -10,3 -22,6 -27,6 -8,0 -21,28 -26,56 -1,6 8,10 20,9 16,-1 20,-7 18,-24 z m 1424,9 c 40,0 59,-15 114,-91 40,-55 50,-76 46,-95 -4,-13 -12,-23 -19,-21 -6,1 -11,-4 -10,-10 2,-7 -3,-13 -11,-13 -8,0 -24,-9 -37,-21 -13,-11 -18,-18 -11,-14 22,11 13,-4 -13,-21 -34,-22 -82,-4 -92,35 -3,14 -10,32 -15,38 -6,7 -8,19 -5,28 4,8 2,17 -3,20 -4,3 -1,31 7,63 9,31 16,73 16,92 0,19 2,29 4,23 3,-7 16,-13 29,-13 z M 763,1540 c 3,-11 1,-20 -4,-20 -5,0 -9,2 -9,4 0,2 -3,11 -6,20 -3,9 -2,16 4,16 5,0 12,-9 15,-20 z m 1288,-13 c 0,5 4,-1 8,-12 5,-11 7,-36 5,-55 -2,-19 -4,-61 -5,-92 -1,-33 -8,-65 -16,-75 -13,-16 -13,-16 -4,4 6,12 11,28 10,35 0,7 -7,-2 -15,-20 -8,-18 -11,-38 -8,-44 4,-6 3,-8 -3,-5 -6,4 -18,-2 -28,-13 -10,-11 -14,-20 -10,-20 5,0 3,-6 -3,-12 -7,-7 -16,-13 -20,-13 -4,0 -24,-11 -45,-24 -21,-13 -40,-21 -43,-18 -3,3 7,12 23,20 38,20 77,63 64,71 -7,4 -3,18 9,39 11,18 27,58 36,90 9,31 21,57 26,57 6,0 7,7 4,16 -4,12 -2,15 9,10 13,-5 14,-2 4,17 -6,12 -21,33 -33,46 l -21,25 28,-17 c 15,-10 27,-14 28,-10 z m -51,-20 c 0,-5 -7,-6 -16,-3 -9,3 -27,6 -40,6 -30,0 -32,17 -1,22 23,4 57,-11 57,-25 z m -90,9 c 0,-2 -11,-6 -25,-8 -13,-3 -22,-1 -19,3 5,9 44,13 44,5 z m -130,-16 c 0,-6 -16,-10 -36,-10 -19,0 -33,3 -31,8 8,11 67,13 67,2 z m 37,4 c -3,-3 -12,-4 -19,-1 -8,3 -5,6 6,6 11,1 17,-2 13,-5 z m -123,-16 c -3,-5 -10,-6 -15,-3 -5,3 -6,0 -3,-8 4,-10 -3,-14 -22,-14 h -27 l 22,17 c 24,17 54,23 45,8 z m 220,3 c 4,10 7,11 12,2 3,-8 13,-9 27,-4 12,5 31,5 42,1 11,-4 23,-6 28,-3 9,5 9,0 1,-21 -5,-13 -9,-14 -25,-3 -13,9 -34,11 -69,7 -74,-10 -133,-7 -137,7 -3,8 6,11 23,9 16,-2 40,0 54,4 14,4 28,3 31,-3 4,-5 9,-3 13,4 z m -148,-21 c 13,0 24,-5 24,-11 0,-6 -9,-9 -20,-6 -11,3 -20,1 -20,-4 0,-6 -6,-9 -12,-7 -15,3 -80,-22 -89,-34 -3,-5 -13,-6 -22,-2 -15,5 -13,9 8,26 15,12 34,18 46,15 15,-4 19,-2 15,8 -5,15 12,26 32,19 8,-2 25,-4 38,-4 z m 237,-43 c -2,-4 -11,-3 -19,4 -12,10 -12,14 -2,20 13,9 30,-10 21,-24 z m -57,7 c -3,-9 -6,-22 -6,-30 0,-8 -7,-14 -15,-14 -8,0 -15,5 -15,11 0,6 -19,-3 -42,-20 -47,-34 -82,-39 -116,-15 -27,19 -52,12 -52,-13 0,-15 2,-15 9,-4 8,12 12,12 25,2 8,-7 31,-13 51,-13 19,0 35,-4 35,-9 0,-5 5,-9 11,-9 6,0 9,7 5,15 -3,9 0,15 8,15 8,0 16,-9 19,-20 3,-11 4,-20 3,-20 0,0 -16,-4 -34,-10 -27,-7 -33,-6 -29,5 7,17 -38,29 -61,16 -14,-8 -10,-11 18,-11 29,0 32,-2 18,-11 -19,-11 -58,4 -58,22 0,6 -4,8 -9,5 -5,-3 -14,1 -21,9 -7,8 -9,15 -4,15 5,0 1,5 -8,11 -60,34 53,73 256,88 13,1 16,-4 12,-15 z m 604,-14 c 0,-5 -5,-10 -11,-10 -5,0 -7,5 -4,10 3,6 8,10 11,10 2,0 4,-4 4,-10 z m -564,-14 c 3,-8 1,-23 -5,-33 -6,-11 -11,-13 -11,-5 0,7 -5,10 -11,6 -8,-4 -8,-9 0,-17 17,-17 13,-29 -9,-22 -21,7 -28,-9 -9,-20 23,-15 -58,-75 -100,-75 -14,0 -19,5 -15,15 4,8 1,15 -5,15 -7,0 -14,-7 -17,-15 -9,-22 -24,-18 -24,5 0,14 7,20 25,21 37,2 37,2 75,26 19,12 43,36 53,53 13,22 24,30 35,26 15,-5 15,-4 0,7 -10,8 -15,17 -11,20 11,11 23,8 29,-7 z m 384,0 c 0,-3 -7,-12 -16,-20 -14,-14 -14,-16 0,-16 17,0 60,-85 51,-100 -4,-6 -17,-4 -34,5 -16,8 -31,12 -33,9 -5,-4 -34,9 -66,29 -18,12 1,41 46,72 34,24 52,31 52,21 z m -721,-47 c 19,-26 20,-30 6,-35 -10,-4 -14,-13 -10,-23 5,-12 3,-13 -5,-5 -9,9 -9,17 -1,32 8,16 7,21 -5,26 -8,3 -12,10 -9,16 3,5 2,10 -4,10 -5,0 -12,-6 -14,-12 -3,-7 -6,-3 -6,9 -1,29 19,22 48,-18 z m 929,23 c 2,-6 9,-9 15,-6 23,8 57,-59 56,-112 0,-36 -3,-44 -9,-29 -8,19 -9,19 -9,-2 -1,-13 -4,-23 -8,-22 -12,0 -56,59 -45,59 6,0 2,18 -9,40 -10,21 -19,45 -19,53 0,7 -5,18 -10,23 -7,7 -4,10 12,9 12,-1 24,-7 26,-13 z m -663,-3 c 4,-6 -2,-13 -14,-16 -12,-3 -21,-10 -21,-15 0,-5 5,-6 10,-3 6,3 10,2 10,-3 0,-6 -6,-12 -14,-15 -21,-8 -26,24 -8,46 17,20 28,22 37,6 z m -325,-3 c 0,-3 -4,-8 -10,-11 -5,-3 -10,-1 -10,4 0,6 5,11 10,11 6,0 10,-2 10,-4 z m 125,-76 c 18,-20 18,-21 -1,-14 -13,4 -15,3 -6,-4 7,-5 25,-7 39,-4 21,4 25,2 20,-10 -3,-9 0,-21 6,-27 6,-6 7,-14 2,-18 -4,-5 -10,-2 -12,5 -3,6 -10,12 -17,12 -19,0 -57,40 -50,52 4,6 -1,8 -15,3 -20,-6 -28,4 -14,18 12,12 30,7 48,-13 z m 656,-55 36,-5 7,-108 c 4,-59 9,-130 12,-159 5,-45 3,-56 -20,-86 -27,-35 -25,-57 2,-34 13,10 15,9 9,-5 -3,-10 -2,-18 2,-18 15,0 20,27 8,39 -8,8 -5,11 11,11 15,0 22,6 22,19 0,11 5,23 10,26 14,8 13,45 -1,45 -8,0 -8,4 0,14 9,11 9,16 0,21 -6,4 -16,1 -21,-6 -8,-12 -9,-11 -5,1 2,8 -2,29 -10,47 -20,48 -14,54 8,8 l 20,-40 -7,35 c -3,19 -10,40 -14,45 -10,12 -8,71 3,81 4,4 7,2 7,-4 0,-7 9,-21 20,-32 11,-11 20,-27 20,-35 0,-8 5,-15 10,-15 6,0 28,-18 50,-40 22,-22 44,-40 49,-40 11,0 12,-26 4,-79 -3,-25 -7,-31 -13,-21 -5,8 -6,18 -3,24 3,5 1,6 -5,2 -9,-5 -8,-17 4,-44 9,-22 14,-57 12,-88 -2,-32 2,-57 10,-67 8,-9 15,-35 15,-57 1,-22 5,-40 9,-40 4,0 5,-11 2,-25 -3,-17 0,-25 9,-25 21,0 3,-101 -21,-120 -10,-9 -17,-21 -14,-28 4,-14 -14,-16 -23,-2 -14,22 -15,65 -4,92 13,33 29,28 30,-10 l 1,-27 8,29 c 6,20 5,37 -6,57 -15,30 -30,40 -20,14 3,-8 1,-15 -3,-15 -20,0 -57,97 -60,157 -1,6 -19,14 -41,18 -35,6 -39,9 -30,26 6,10 20,19 32,19 12,0 18,3 14,7 -11,11 -67,12 -60,2 3,-5 -2,-9 -10,-9 -9,0 -15,-6 -14,-12 2,-7 -3,-12 -10,-10 -7,1 -15,-5 -18,-13 -8,-21 -44,-1 -44,25 0,27 21,36 37,15 11,-16 13,-17 13,-2 0,9 -8,21 -17,26 -10,6 -15,11 -10,11 17,0 -67,145 -130,222 -70,87 -88,134 -77,194 4,24 12,34 25,34 10,0 20,4 24,10 3,5 30,-4 63,-20 31,-16 73,-32 93,-35 z m -495,-20 c -23,-17 -76,-20 -76,-5 0,6 16,10 35,8 19,-1 37,1 41,5 4,4 10,7 13,7 3,0 -3,-7 -13,-15 z m -285,-142 c 13,-16 12,-17 -3,-4 -17,13 -22,21 -14,21 2,0 10,-8 17,-17 z m 663,-68 38,-50 -36,40 c -60,67 -36,12 40,-92 10,-14 12,-23 5,-23 -6,0 -11,4 -11,9 0,5 -7,12 -16,15 -11,4 -8,-3 8,-25 39,-52 58,-88 54,-101 -3,-7 -7,-26 -10,-41 -5,-21 -11,-27 -24,-23 -9,3 -23,2 -31,-3 -9,-6 -3,-10 19,-13 28,-4 33,-1 42,24 8,22 13,26 23,18 11,-9 11,-18 -1,-48 -13,-33 -13,-35 1,-18 8,11 15,26 15,33 0,7 2,13 4,13 2,0 11,3 20,6 12,5 16,0 16,-17 -1,-23 -24,-63 -38,-65 -21,-2 -68,-18 -78,-25 -19,-15 -130,7 -160,32 -7,6 -33,9 -57,8 -38,-3 -45,-1 -55,18 -13,29 3,41 27,19 17,-16 115,-39 211,-50 76,-9 45,7 -55,28 -125,27 -155,36 -155,47 0,6 6,9 13,6 32,-12 106,152 122,267 8,59 15,80 25,69 3,-4 24,-30 44,-58 z m -748,4 c 8,-58 143,-194 237,-240 33,-16 62,-27 64,-25 2,2 16,-7 29,-19 21,-19 30,-22 50,-15 28,11 34,-4 7,-18 -25,-13 -138,-15 -160,-4 -10,5 -31,16 -48,23 -48,22 -126,71 -121,76 2,3 24,-7 49,-21 24,-14 50,-26 58,-26 7,0 -4,9 -26,21 -22,12 -52,32 -66,45 -14,13 -28,22 -32,19 -4,-3 -5,-2 -2,1 5,8 -36,84 -45,84 -17,0 -30,78 -21,118 3,10 25,-6 27,-19 z m 617,-4 c -3,-9 -8,-14 -10,-11 -3,3 -2,9 2,15 9,16 15,13 8,-4 z m -679,-40 c -4,-8 -2,-15 4,-15 10,0 39,-59 35,-72 -1,-3 4,-12 12,-18 8,-7 15,-18 15,-25 0,-17 60,-91 72,-87 5,1 7,-2 4,-7 -8,-12 70,-76 117,-96 20,-8 37,-18 37,-21 0,-3 -21,-24 -47,-47 -113,-99 -163,-166 -163,-217 0,-10 -7,-24 -16,-31 -14,-11 -18,-11 -29,4 -7,9 -10,28 -8,41 4,18 -3,33 -22,52 -22,22 -31,45 -41,103 -8,48 -10,79 -4,85 7,7 10,3 10,-9 0,-10 3,-15 7,-12 3,4 2,17 -4,30 -24,53 -30,88 -25,165 2,45 8,80 12,77 4,-2 7,8 8,23 1,42 13,92 23,92 5,0 6,-7 3,-15 z m 1003,-47 c -3,-8 -6,-5 -6,6 -1,11 2,17 5,13 3,-3 4,-12 1,-19 z m -99,-103 c -3,-3 -9,2 -12,12 -6,14 -5,15 5,6 7,-7 10,-15 7,-18 z M 2010,675 c -7,-9 -15,-13 -17,-11 -7,7 7,26 19,26 6,0 6,-6 -2,-15 z m 570,-121 c 0,-5 -13,-23 -30,-39 -16,-16 -30,-35 -30,-42 0,-7 -5,-13 -11,-13 -5,0 -8,4 -5,9 3,4 -5,6 -18,4 -29,-6 -89,24 -83,40 17,47 18,57 3,57 -9,0 -16,7 -16,16 0,13 5,12 29,-5 28,-20 67,-29 57,-13 -2,4 4,13 15,20 23,15 24,9 3,-23 -11,-18 -23,-23 -42,-21 -15,2 -20,1 -12,-2 12,-4 11,-6 -5,-13 -16,-7 -13,-8 13,-6 36,4 44,-9 10,-16 -13,-2 -6,-3 15,-2 41,3 61,15 40,22 -19,7 -16,27 6,40 13,8 18,19 14,35 -5,21 -3,20 21,-7 14,-16 25,-35 26,-41 z m -796,-17 c 29,-55 34,-112 11,-121 -15,-5 -17,-3 -19,36 0,12 -7,23 -13,25 -9,3 -12,-6 -11,-29 5,-79 -2,-114 -20,-115 -14,-1 -17,4 -14,25 2,15 -1,47 -7,71 -6,29 -6,51 0,63 10,19 -5,27 -16,8 -10,-16 -25,-1 -18,18 8,22 55,69 70,69 7,0 23,-22 37,-50 z m 290,-121 c 6,-51 19,-68 44,-59 15,6 34,-15 26,-29 -7,-11 -54,-10 -54,1 0,5 -6,16 -13,23 -23,23 -35,71 -24,96 13,29 14,27 21,-32 z M 1262,163 c 7,-9 7,-13 0,-13 -13,0 -22,25 -21,53 2,19 2,19 6,-3 3,-14 10,-31 15,-37 z m -164,-22 c 8,-4 14,-10 15,-12 4,-8 -45,-69 -55,-69 -13,0 -1,52 14,61 6,4 7,12 4,18 -8,13 3,14 22,2 z"
           id="path14025" />
        <path
           style="fill:none;stroke:#ff0000;stroke-width:8.50393677;stroke-miterlimit:4;stroke-dasharray:none"
           inkscape:connector-curvature="0"
           d="m 2175,1580 c -3,-5 1,-10 10,-10 9,0 13,5 10,10 -3,6 -8,10 -10,10 -2,0 -7,-4 -10,-10 z"
           id="path14027" />
        <path
           style="fill:none;stroke:#ff0000;stroke-width:8.50393677;stroke-miterlimit:4;stroke-dasharray:none"
           inkscape:connector-curvature="0"
           d="m 2153,1538 c -17,-39 -6,-108 18,-108 6,0 7,5 3,12 -4,6 -6,35 -5,65 2,58 -1,64 -16,31 z"
           id="path14029" />
        <path
           style="fill:none;stroke:#ff0000;stroke-width:8.50393677;stroke-miterlimit:4;stroke-dasharray:none"
           inkscape:connector-curvature="0"
           d="m 2235,1520 c -3,-5 -1,-10 4,-10 6,0 11,5 11,10 0,6 -2,10 -4,10 -3,0 -8,-4 -11,-10 z"
           id="path14031" />
        <path
           style="fill:none;stroke:#ff0000;stroke-width:8.50393677;stroke-miterlimit:4;stroke-dasharray:none"
           inkscape:connector-curvature="0"
           d="m 2250,1425 c -7,-8 -18,-15 -25,-15 -8,0 -16,-6 -18,-12 -4,-10 -8,-10 -15,1 -7,9 -12,10 -16,2 -4,-6 -2,-11 4,-11 6,0 8,-5 5,-10 -4,-6 -11,-8 -16,-5 -5,4 -9,2 -9,-3 0,-20 14,-19 39,4 14,13 31,22 36,20 6,-2 18,7 28,20 19,26 8,34 -13,9 z"
           id="path14033" />
        <path
           style="fill:none;stroke:#ff0000;stroke-width:8.50393677;stroke-miterlimit:4;stroke-dasharray:none"
           inkscape:connector-curvature="0"
           d="m 2016,1379 c -9,-29 -25,-67 -35,-85 -20,-33 -16,-50 6,-36 15,9 35,61 28,72 -3,4 2,11 11,14 10,4 14,14 11,26 -3,11 -1,18 4,14 5,-3 9,0 9,5 0,6 -6,11 -12,11 -10,0 -9,3 1,9 9,6 10,11 3,15 -7,4 -17,-14 -26,-45 z m -30,-107 c -17,-16 -18,-16 -5,5 7,12 15,20 18,17 3,-2 -3,-12 -13,-22 z"
           id="path14035" />
        <path
           style="fill:none;stroke:#ff0000;stroke-width:8.50393677;stroke-miterlimit:4;stroke-dasharray:none"
           inkscape:connector-curvature="0"
           d="m 1670,1380 c 0,-5 7,-7 15,-4 8,4 15,8 15,10 0,2 -7,4 -15,4 -8,0 -15,-4 -15,-10 z"
           id="path14037" />
        <path
           style="fill:none;stroke:#ff0000;stroke-width:8.50393677;stroke-miterlimit:4;stroke-dasharray:none"
           inkscape:connector-curvature="0"
           d="m 1886,1292 c -3,-6 -1,-14 5,-17 15,-10 25,3 12,16 -7,7 -13,7 -17,1 z"
           id="path14039" />
        <path
           style="fill:none;stroke:#ff0000;stroke-width:8.50393677;stroke-miterlimit:4;stroke-dasharray:none"
           inkscape:connector-curvature="0"
           d="m 1850,1260 c 0,-5 4,-10 9,-10 6,0 13,5 16,10 3,6 -1,10 -9,10 -9,0 -16,-4 -16,-10 z"
           id="path14041" />
        <path
           style="fill:none;stroke:#ff0000;stroke-width:8.50393677;stroke-miterlimit:4;stroke-dasharray:none"
           inkscape:connector-curvature="0"
           d="m 2516,1035 c 4,-8 11,-15 16,-15 6,0 5,6 -2,15 -7,8 -14,15 -16,15 -2,0 -1,-7 2,-15 z"
           id="path14043" />
        <path
           style="fill:none;stroke:#ff0000;stroke-width:8.50393677;stroke-miterlimit:4;stroke-dasharray:none"
           inkscape:connector-curvature="0"
           d="m 2527,973 c -4,-3 -7,-13 -7,-22 1,-13 3,-13 11,2 11,19 8,33 -4,20 z"
           id="path14045" />
        <path
           style="fill:none;stroke:#ff0000;stroke-width:8.50393677;stroke-miterlimit:4;stroke-dasharray:none"
           inkscape:connector-curvature="0"
           d="m 2477,881 c 16,-10 23,-39 10,-44 -6,-2 -5,-6 5,-9 11,-5 18,0 21,13 3,10 1,17 -4,13 -5,-3 -9,2 -9,11 0,9 5,13 10,10 6,-3 10,-2 10,3 0,5 -12,10 -26,10 -14,0 -22,-3 -17,-7 z"
           id="path14047" />
        <path
           style="fill:none;stroke:#ff0000;stroke-width:8.50393677;stroke-miterlimit:4;stroke-dasharray:none"
           inkscape:connector-curvature="0"
           d="m 2550,771 c 0,-6 5,-13 10,-16 6,-4 7,-11 4,-17 -4,-7 -2,-8 4,-4 9,5 9,13 2,27 -11,20 -20,25 -20,10 z"
           id="path14049" />
        <path
           style="fill:none;stroke:#ff0000;stroke-width:8.50393677;stroke-miterlimit:4;stroke-dasharray:none"
           inkscape:connector-curvature="0"
           d="m 2586,721 c -3,-4 1,-17 9,-27 8,-10 15,-14 15,-7 0,6 -5,15 -11,19 -8,4 -7,9 2,15 10,6 10,9 2,9 -6,0 -14,-4 -17,-9 z"
           id="path14051" />
        <path
           style="fill:none;stroke:#ff0000;stroke-width:8.50393677;stroke-miterlimit:4;stroke-dasharray:none"
           inkscape:connector-curvature="0"
           d="m 2560,670 c 0,-5 5,-10 11,-10 5,0 7,5 4,10 -3,6 -8,10 -11,10 -2,0 -4,-4 -4,-10 z"
           id="path14053" />
        <path
           style="fill:none;stroke:#ff0000;stroke-width:8.50393677;stroke-miterlimit:4;stroke-dasharray:none"
           inkscape:connector-curvature="0"
           d="m 2197,926 c -4,-10 -1,-13 9,-9 15,6 19,23 5,23 -5,0 -11,-7 -14,-14 z"
           id="path14055" />
        <path
           style="fill:none;stroke:#ff0000;stroke-width:8.50393677;stroke-miterlimit:4;stroke-dasharray:none"
           inkscape:connector-curvature="0"
           d="m 2210,896 c 0,-9 5,-16 10,-16 6,0 10,4 10,9 0,6 -4,13 -10,16 -5,3 -10,-1 -10,-9 z"
           id="path14057" />
        <path
           style="fill:none;stroke:#ff0000;stroke-width:8.50393677;stroke-miterlimit:4;stroke-dasharray:none"
           inkscape:connector-curvature="0"
           d="m 2167,873 c -4,-3 -7,-13 -7,-22 1,-13 3,-13 11,2 11,19 8,33 -4,20 z"
           id="path14059" />
        <path
           style="fill:none;stroke:#ff0000;stroke-width:8.50393677;stroke-miterlimit:4;stroke-dasharray:none"
           inkscape:connector-curvature="0"
           d="m 2192,834 c -12,-13 -18,-24 -13,-24 12,0 41,29 41,41 0,12 -2,11 -28,-17 z"
           id="path14061" />
        <path
           style="fill:none;stroke:#ff0000;stroke-width:8.50393677;stroke-miterlimit:4;stroke-dasharray:none"
           inkscape:connector-curvature="0"
           d="m 2136,781 c -3,-5 16,-19 42,-32 26,-13 49,-25 51,-26 2,-2 -1,-9 -7,-16 -9,-10 -8,-14 3,-14 29,0 26,48 -3,53 -35,7 -51,18 -43,28 7,8 3,12 -14,14 -13,1 -26,-2 -29,-7 z"
           id="path14063" />
        <path
           style="fill:none;stroke:#ff0000;stroke-width:8.50393677;stroke-miterlimit:4;stroke-dasharray:none"
           inkscape:connector-curvature="0"
           d="m 2240,756 c 0,-2 7,-7 16,-10 8,-3 12,-2 9,4 -6,10 -25,14 -25,6 z"
           id="path14065" />
        <path
           style="fill:none;stroke:#ff0000;stroke-width:8.50393677;stroke-miterlimit:4;stroke-dasharray:none"
           inkscape:connector-curvature="0"
           d="m 2392,710 c 0,-14 2,-19 5,-12 2,6 2,18 0,25 -3,6 -5,1 -5,-13 z"
           id="path14067" />
        <path
           style="fill:none;stroke:#ff0000;stroke-width:8.50393677;stroke-miterlimit:4;stroke-dasharray:none"
           inkscape:connector-curvature="0"
           d="m 1555,900 c 10,-11 20,-20 23,-20 3,0 -3,9 -13,20 -10,11 -20,20 -23,20 -3,0 3,-9 13,-20 z"
           id="path14069" />
        <path
           style="fill:none;stroke:#ff0000;stroke-width:8.50393677;stroke-miterlimit:4;stroke-dasharray:none"
           inkscape:connector-curvature="0"
           d="m 1657,779 c 7,-7 15,-10 18,-7 3,3 -2,9 -12,12 -14,6 -15,5 -6,-5 z"
           id="path14071" />
        <path
           style="fill:none;stroke:#ff0000;stroke-width:8.50393677;stroke-miterlimit:4;stroke-dasharray:none"
           inkscape:connector-curvature="0"
           d="m 1690,743 c 0,-5 18,-16 39,-27 28,-13 44,-15 57,-8 16,9 15,10 -5,17 -12,4 -25,4 -28,1 -3,-3 -15,1 -27,9 -22,16 -36,19 -36,8 z"
           id="path14073" />
        <path
           style="fill:none;stroke:#ff0000;stroke-width:8.50393677;stroke-miterlimit:4;stroke-dasharray:none"
           inkscape:connector-curvature="0"
           d="m 1436,922 c -2,-4 -1,-14 5,-22 7,-12 9,-10 9,8 0,23 -5,28 -14,14 z"
           id="path14075" />
        <path
           style="fill:none;stroke:#ff0000;stroke-width:8.50393677;stroke-miterlimit:4;stroke-dasharray:none"
           inkscape:connector-curvature="0"
           d="m 1499,783 c 12,-24 61,-76 66,-71 2,2 -15,23 -37,48 -23,25 -36,35 -29,23 z"
           id="path14077" />
        <path
           style="fill:none;stroke:#ff0000;stroke-width:8.50393677;stroke-miterlimit:4;stroke-dasharray:none"
           inkscape:connector-curvature="0"
           d="m 1421,763 c -1,-18 4,-33 9,-33 12,0 12,17 0,45 -7,17 -9,15 -9,-12 z"
           id="path14079" />
        <path
           style="fill:none;stroke:#ff0000;stroke-width:8.50393677;stroke-miterlimit:4;stroke-dasharray:none"
           inkscape:connector-curvature="0"
           d="m 1535,680 c 3,-5 8,-10 11,-10 2,0 4,5 4,10 0,6 -5,10 -11,10 -5,0 -7,-4 -4,-10 z"
           id="path14081" />
        <path
           style="fill:none;stroke:#ff0000;stroke-width:8.50393677;stroke-miterlimit:4;stroke-dasharray:none"
           inkscape:connector-curvature="0"
           d="m 1452,664 c 10,-10 20,-16 22,-13 3,3 -5,11 -17,18 -21,13 -21,12 -5,-5 z"
           id="path14083" />
        <path
           style="fill:none;stroke:#ff0000;stroke-width:8.50393677;stroke-miterlimit:4;stroke-dasharray:none"
           inkscape:connector-curvature="0"
           d="m 1573,668 c 1,-8 -6,-12 -17,-10 -18,3 -18,2 -3,-13 26,-26 31,-61 13,-105 -25,-62 -19,-70 14,-20 16,25 30,50 30,55 0,6 -5,3 -10,-5 -6,-9 -10,-10 -10,-3 0,11 17,27 30,28 11,1 50,30 50,37 0,18 -49,6 -64,-14 l -17,-23 5,29 c 2,17 2,36 -1,43 -7,17 -24,17 -20,1 z"
           id="path14085" />
        <path
           style="fill:none;stroke:#ff0000;stroke-width:8.50393677;stroke-miterlimit:4;stroke-dasharray:none"
           inkscape:connector-curvature="0"
           d="m 1480,620 c -6,-11 -9,-20 -8,-20 2,0 11,9 21,20 9,11 13,20 7,20 -5,0 -14,-9 -20,-20 z"
           id="path14087" />
        <path
           style="fill:none;stroke:#ff0000;stroke-width:8.50393677;stroke-miterlimit:4;stroke-dasharray:none"
           inkscape:connector-curvature="0"
           d="m 1520,620 c 0,-5 5,-10 10,-10 6,0 10,5 10,10 0,6 -4,10 -10,10 -5,0 -10,-4 -10,-10 z"
           id="path14089" />
        <path
           style="fill:none;stroke:#ff0000;stroke-width:8.50393677;stroke-miterlimit:4;stroke-dasharray:none"
           inkscape:connector-curvature="0"
           d="m 1470,550 c 0,-5 -7,-10 -15,-10 -8,0 -15,-4 -15,-10 0,-5 6,-10 13,-10 17,1 48,26 40,33 -10,10 -23,8 -23,-3 z"
           id="path14091" />
        <path
           style="fill:none;stroke:#ff0000;stroke-width:8.50393677;stroke-miterlimit:4;stroke-dasharray:none"
           inkscape:connector-curvature="0"
           d="m 1450,500 c 0,-5 5,-10 11,-10 5,0 7,5 4,10 -3,6 -8,10 -11,10 -2,0 -4,-4 -4,-10 z"
           id="path14093" />
        <path
           style="fill:none;stroke:#ff0000;stroke-width:8.50393677;stroke-miterlimit:4;stroke-dasharray:none"
           inkscape:connector-curvature="0"
           d="m 1510,419 c 0,-5 5,-7 10,-4 6,3 10,8 10,11 0,2 -4,4 -10,4 -5,0 -10,-5 -10,-11 z"
           id="path14095" />
        <path
           style="fill:none;stroke:#ff0000;stroke-width:8.50393677;stroke-miterlimit:4;stroke-dasharray:none"
           inkscape:connector-curvature="0"
           d="m 1720,540 c -8,-5 -11,-12 -7,-16 4,-4 13,-2 19,4 15,15 7,24 -12,12 z"
           id="path14097" />
        <path
           style="fill:none;stroke:#ff0000;stroke-width:8.50393677;stroke-miterlimit:4;stroke-dasharray:none"
           inkscape:connector-curvature="0"
           d="m 697,2560 c 3,-11 7,-20 9,-20 2,0 4,9 4,20 0,11 -4,20 -9,20 -5,0 -7,-9 -4,-20 z"
           id="path14099" />
        <path
           style="fill:none;stroke:#ff0000;stroke-width:8.50393677;stroke-miterlimit:4;stroke-dasharray:none"
           inkscape:connector-curvature="0"
           d="m 674,2524 c -4,-10 -9,-22 -11,-26 -2,-5 0,-8 5,-8 10,0 24,41 17,48 -3,3 -8,-4 -11,-14 z"
           id="path14101" />
        <path
           style="fill:none;stroke:#ff0000;stroke-width:8.50393677;stroke-miterlimit:4;stroke-dasharray:none"
           inkscape:connector-curvature="0"
           d="m 2635,2500 c -3,-5 -1,-10 4,-10 6,0 11,5 11,10 0,6 -2,10 -4,10 -3,0 -8,-4 -11,-10 z"
           id="path14103" />
        <path
           style="fill:none;stroke:#ff0000;stroke-width:8.50393677;stroke-miterlimit:4;stroke-dasharray:none"
           inkscape:connector-curvature="0"
           d="m 621,2436 c -12,-18 -21,-38 -21,-43 0,-6 -11,-35 -24,-65 -31,-70 -75,-108 -125,-108 -52,0 -126,24 -164,53 -18,13 -48,32 -67,42 -36,18 -87,68 -120,120 -11,17 -20,24 -20,17 0,-17 50,-92 62,-92 6,0 8,-10 6,-23 -4,-19 -1,-23 16,-20 13,3 54,-16 106,-48 71,-44 95,-53 143,-57 62,-5 129,11 150,36 6,8 26,53 43,101 28,79 32,86 57,86 15,-1 27,0 27,1 0,1 -11,9 -24,18 -24,15 -25,15 -45,-18 z"
           id="path14105" />
        <path
           style="fill:none;stroke:#ff0000;stroke-width:8.50393677;stroke-miterlimit:4;stroke-dasharray:none"
           inkscape:connector-curvature="0"
           d="m 37,2418 c 7,-37 26,-79 55,-120 23,-33 34,-35 34,-8 0,10 -2,17 -4,15 -11,-10 -72,94 -72,121 0,7 -4,16 -10,19 -6,4 -7,-6 -3,-27 z"
           id="path14107" />
        <path
           style="fill:none;stroke:#ff0000;stroke-width:8.50393677;stroke-miterlimit:4;stroke-dasharray:none"
           inkscape:connector-curvature="0"
           d="m 2655,2416 c -23,-25 -26,-40 -4,-19 12,12 21,24 18,27 -2,2 -9,-1 -14,-8 z"
           id="path14109" />
        <path
           style="fill:none;stroke:#ff0000;stroke-width:8.50393677;stroke-miterlimit:4;stroke-dasharray:none"
           inkscape:connector-curvature="0"
           d="m 664,2295 c -6,-19 -8,-35 -3,-35 4,0 10,-8 13,-17 2,-10 3,-4 1,14 -2,18 0,33 5,35 4,2 5,11 1,20 -5,14 -9,10 -17,-17 z"
           id="path14111" />
        <path
           style="fill:none;stroke:#ff0000;stroke-width:8.50393677;stroke-miterlimit:4;stroke-dasharray:none"
           inkscape:connector-curvature="0"
           d="m 2548,2293 c 7,-3 16,-2 19,1 4,3 -2,6 -13,5 -11,0 -14,-3 -6,-6 z"
           id="path14113" />
        <path
           style="fill:none;stroke:#ff0000;stroke-width:8.50393677;stroke-miterlimit:4;stroke-dasharray:none"
           inkscape:connector-curvature="0"
           d="m 180,2275 c 0,-8 4,-15 10,-15 5,0 7,7 4,15 -4,8 -8,15 -10,15 -2,0 -4,-7 -4,-15 z"
           id="path14115" />
        <path
           style="fill:none;stroke:#ff0000;stroke-width:8.50393677;stroke-miterlimit:4;stroke-dasharray:none"
           inkscape:connector-curvature="0"
           d="m 2460,2269 c 0,-11 -4,-18 -9,-14 -17,10 -23,-16 -8,-33 8,-9 27,-41 41,-69 27,-54 57,-70 70,-37 10,26 7,28 -13,10 -19,-18 -20,-17 -35,19 -9,21 -16,41 -16,46 0,5 -5,9 -11,9 -8,0 -10,15 -7,45 3,25 2,45 -3,45 -5,0 -9,-9 -9,-21 z"
           id="path14117" />
        <path
           style="fill:none;stroke:#ff0000;stroke-width:8.50393677;stroke-miterlimit:4;stroke-dasharray:none"
           inkscape:connector-curvature="0"
           d="m 2496,2261 c -4,-7 -5,-15 -2,-18 9,-9 19,4 14,18 -4,11 -6,11 -12,0 z"
           id="path14119" />
        <path
           style="fill:none;stroke:#ff0000;stroke-width:8.50393677;stroke-miterlimit:4;stroke-dasharray:none"
           inkscape:connector-curvature="0"
           d="m 200,2241 c 0,-5 5,-13 10,-16 6,-3 10,-2 10,4 0,5 -4,13 -10,16 -5,3 -10,2 -10,-4 z"
           id="path14121" />
        <path
           style="fill:none;stroke:#ff0000;stroke-width:8.50393677;stroke-miterlimit:4;stroke-dasharray:none"
           inkscape:connector-curvature="0"
           d="m 265,2230 c 10,-11 22,-17 26,-14 5,3 9,0 9,-5 0,-6 5,-11 10,-11 6,0 5,8 -2,19 -7,11 -15,18 -19,15 -4,-2 -10,0 -14,6 -3,5 -11,10 -17,10 -6,0 -3,-9 7,-20 z"
           id="path14123" />
        <path
           style="fill:none;stroke:#ff0000;stroke-width:8.50393677;stroke-miterlimit:4;stroke-dasharray:none"
           inkscape:connector-curvature="0"
           d="m 1700,2215 c -9,-10 -10,-19 -4,-23 6,-4 8,-63 4,-155 -4,-122 -8,-151 -21,-161 -15,-10 -15,-14 -2,-31 15,-20 15,-19 10,3 -3,14 1,25 11,31 10,5 16,12 15,15 -2,3 -3,16 -3,29 1,20 1,21 11,4 6,-10 8,-21 5,-24 -3,-4 -1,-12 5,-19 6,-8 9,-20 6,-29 -4,-8 0,-21 8,-29 8,-7 18,-36 23,-62 6,-29 10,-38 11,-23 0,14 -8,61 -19,105 -26,101 -50,238 -49,278 l 1,31 9,-30 c 5,-16 14,-59 19,-95 5,-36 21,-114 36,-175 15,-60 27,-125 27,-143 0,-20 3,-28 9,-20 4,8 8,-14 8,-51 0,-54 -2,-62 -14,-51 -8,6 -12,18 -9,26 3,8 0,14 -7,14 -7,0 -10,7 -6,16 4,9 2,22 -3,28 -6,7 -17,39 -25,71 -9,33 -14,48 -12,33 2,-16 0,-28 -5,-28 -12,0 -27,33 -22,48 6,14 -13,16 -22,2 -3,-6 1,-17 10,-26 9,-9 14,-23 11,-30 -3,-8 -1,-14 5,-14 6,0 8,-4 4,-9 -3,-5 -1,-13 5,-16 8,-5 7,-11 -1,-21 -6,-8 -8,-18 -4,-22 4,-4 10,-1 12,6 6,16 23,5 23,-14 0,-9 -5,-13 -12,-9 -7,4 -2,-2 11,-13 13,-10 21,-24 18,-29 -4,-6 -1,-16 7,-22 18,-15 66,-3 66,16 0,8 4,12 8,9 4,-2 9,4 9,15 2,21 -12,26 -21,7 -3,-7 -4,-1 -2,14 2,16 -3,36 -10,45 -27,36 -5,100 24,71 7,-7 12,-9 12,-4 0,4 -6,14 -14,21 -12,12 -15,12 -20,-2 -4,-10 -10,-13 -16,-7 -10,10 -45,139 -54,199 -5,37 -4,36 15,-15 11,-30 25,-76 30,-103 6,-26 15,-44 20,-41 6,3 5,11 -2,20 -8,10 -8,14 0,14 6,0 11,5 11,11 0,5 -5,7 -12,3 -7,-5 -9,-2 -5,8 3,9 1,20 -4,25 -9,9 -49,138 -49,160 0,8 6,8 24,0 17,-8 21,-14 13,-20 -8,-5 -3,-7 10,-4 28,6 107,-48 97,-66 -4,-7 -3,-9 1,-4 10,9 55,-31 55,-50 0,-7 10,-13 21,-13 20,0 19,3 -13,43 -49,59 -125,116 -175,129 -41,12 -42,13 -59,77 -23,90 -27,96 -44,76 z"
           id="path14125" />
        <path
           style="fill:none;stroke:#ff0000;stroke-width:8.50393677;stroke-miterlimit:4;stroke-dasharray:none"
           inkscape:connector-curvature="0"
           d="m 620,2211 c 0,-6 4,-13 10,-16 6,-3 7,1 4,9 -7,18 -14,21 -14,7 z"
           id="path14127" />
        <path
           style="fill:none;stroke:#ff0000;stroke-width:8.50393677;stroke-miterlimit:4;stroke-dasharray:none"
           inkscape:connector-curvature="0"
           d="m 469,2184 c -48,-20 -57,-64 -27,-126 19,-41 63,-87 82,-88 6,0 1,7 -10,15 -16,13 -17,16 -4,24 12,8 18,3 30,-22 13,-27 21,-32 56,-35 38,-3 43,0 65,35 12,21 21,43 20,48 -5,18 -13,59 -15,76 -1,19 -59,75 -78,77 -7,0 -29,3 -48,6 -21,4 -49,0 -71,-10 z m 101,-15 c 0,-5 -4,-9 -10,-9 -5,0 -10,-5 -10,-11 0,-8 4,-8 13,-1 14,12 42,11 54,-3 4,-4 3,-5 -3,-2 -7,4 -14,-2 -17,-13 -5,-18 -8,-19 -31,-8 -30,13 -41,6 -51,-34 -5,-18 -3,-28 4,-28 5,0 0,-10 -12,-23 -23,-25 -37,-25 -37,-1 0,8 10,15 23,15 19,1 19,2 3,6 -21,5 -55,41 -56,58 0,6 4,4 9,-3 7,-11 9,-11 14,1 3,8 1,19 -4,24 -6,6 1,8 20,5 16,-2 32,1 36,9 5,7 4,10 -3,6 -5,-4 -18,-4 -27,-1 -10,4 -13,9 -6,13 17,11 91,11 91,0 z m 67,-60 c 15,-15 -9,-41 -31,-33 -12,5 -13,9 -3,25 14,22 19,23 34,8 z m -66,-37 c -7,-13 -7,-22 1,-30 9,-9 8,-12 -5,-12 -9,0 -17,6 -17,14 0,8 -3,22 -7,32 -5,13 -3,16 10,11 10,-4 17,-2 17,5 0,6 3,9 6,6 3,-4 1,-15 -5,-26 z m 24,-12 c 3,-5 1,-10 -4,-10 -6,0 -11,5 -11,10 0,6 2,10 4,10 3,0 8,-4 11,-10 z m 55,-40 c -8,-5 -17,-6 -20,-3 -3,3 1,8 8,10 20,8 14,22 -8,16 -11,-3 -20,-1 -20,5 0,6 8,12 18,14 23,5 41,-30 22,-42 z m -10,-52 c 0,-12 -13,-9 -34,7 -16,12 -22,12 -27,3 -7,-10 -11,-10 -21,0 -11,11 -9,17 12,34 l 24,20 23,-29 c 13,-15 23,-31 23,-35 z"
           id="path14129" />
        <path
           style="fill:none;stroke:#ff0000;stroke-width:8.50393677;stroke-miterlimit:4;stroke-dasharray:none"
           inkscape:connector-curvature="0"
           d="m 485,2080 c -3,-5 -1,-10 4,-10 6,0 11,5 11,10 0,6 -2,10 -4,10 -3,0 -8,-4 -11,-10 z"
           id="path14131" />
        <path
           style="fill:none;stroke:#ff0000;stroke-width:8.50393677;stroke-miterlimit:4;stroke-dasharray:none"
           inkscape:connector-curvature="0"
           d="m 2538,2175 c -3,-14 -1,-25 3,-25 5,0 9,11 9,25 0,14 -2,25 -4,25 -2,0 -6,-11 -8,-25 z"
           id="path14133" />
        <path
           style="fill:none;stroke:#ff0000;stroke-width:8.50393677;stroke-miterlimit:4;stroke-dasharray:none"
           inkscape:connector-curvature="0"
           d="m 345,2180 c 3,-5 8,-10 11,-10 2,0 4,5 4,10 0,6 -5,10 -11,10 -5,0 -7,-4 -4,-10 z"
           id="path14135" />
        <path
           style="fill:none;stroke:#ff0000;stroke-width:8.50393677;stroke-miterlimit:4;stroke-dasharray:none"
           inkscape:connector-curvature="0"
           d="m 267,2166 c -4,-10 -1,-13 8,-9 8,3 12,9 9,14 -7,12 -11,11 -17,-5 z"
           id="path14137" />
        <path
           style="fill:none;stroke:#ff0000;stroke-width:8.50393677;stroke-miterlimit:4;stroke-dasharray:none"
           inkscape:connector-curvature="0"
           d="m 2180,2160 c -13,-8 -12,-10 3,-10 9,0 17,5 17,10 0,12 -1,12 -20,0 z"
           id="path14139" />
        <path
           style="fill:none;stroke:#ff0000;stroke-width:8.50393677;stroke-miterlimit:4;stroke-dasharray:none"
           inkscape:connector-curvature="0"
           d="m 1611,2098 c -13,-28 -38,-58 -75,-86 -67,-52 -107,-116 -141,-229 -14,-44 -32,-87 -41,-94 -8,-7 -13,-18 -10,-26 3,-8 2,-12 -3,-8 -13,7 -84,-119 -110,-195 -12,-35 -29,-76 -37,-91 -13,-27 -13,-31 8,-59 27,-36 28,-37 28,-4 0,15 -4,23 -11,18 -15,-9 -8,37 9,54 7,8 10,17 7,22 -3,4 2,13 10,20 8,7 15,17 15,22 0,6 -6,5 -14,-1 -11,-10 -11,-2 3,34 10,26 22,50 28,53 6,4 17,21 26,37 8,17 25,41 36,54 12,13 21,29 21,35 1,15 75,96 89,96 6,0 11,5 11,10 0,16 -12,12 -43,-17 -25,-24 -28,-25 -18,-6 10,21 49,55 74,67 9,5 9,7 0,12 -10,4 -10,11 -2,26 6,11 8,22 6,25 -3,2 -11,-12 -18,-31 -7,-20 -19,-36 -26,-36 -11,0 -11,4 -1,23 7,12 13,24 13,27 4,25 18,49 26,45 5,-3 6,0 3,8 -3,8 0,18 7,23 8,5 10,3 4,-6 -5,-9 -4,-11 4,-6 6,4 9,11 6,16 -6,10 33,60 47,60 6,0 5,-7 -3,-17 -11,-15 -11,-16 1,-5 35,30 29,8 -9,-33 -43,-47 -48,-55 -31,-55 6,0 10,6 10,14 0,8 21,33 48,56 26,23 46,47 44,52 -2,6 4,8 13,4 10,-3 14,-2 10,5 -4,6 0,9 10,7 10,-2 20,3 22,10 7,20 -20,14 -60,-14 -54,-36 -55,-24 -3,24 32,29 51,40 63,35 17,-6 17,-5 1,14 -10,11 -18,26 -18,34 0,8 8,4 20,-11 23,-30 36,-23 14,8 -23,33 -43,27 -63,-20 z m -16,-108 c -3,-5 -11,-10 -16,-10 -6,0 -7,5 -4,10 3,6 11,10 16,10 6,0 7,-4 4,-10 z"
           id="path14141" />
        <path
           style="fill:none;stroke:#ff0000;stroke-width:8.50393677;stroke-miterlimit:4;stroke-dasharray:none"
           inkscape:connector-curvature="0"
           d="m 2110,2117 c 0,-8 11,-19 25,-25 14,-6 25,-8 25,-3 0,5 -11,16 -25,25 -20,13 -25,14 -25,3 z"
           id="path14143" />
        <path
           style="fill:none;stroke:#ff0000;stroke-width:8.50393677;stroke-miterlimit:4;stroke-dasharray:none"
           inkscape:connector-curvature="0"
           d="m 2200,2100 c 0,-5 7,-7 15,-4 8,4 15,1 15,-5 0,-6 7,-8 15,-5 25,10 17,21 -15,22 -16,0 -30,-3 -30,-8 z"
           id="path14145" />
        <path
           style="fill:none;stroke:#ff0000;stroke-width:8.50393677;stroke-miterlimit:4;stroke-dasharray:none"
           inkscape:connector-curvature="0"
           d="m 2658,2043 c 7,-3 16,-2 19,1 4,3 -2,6 -13,5 -11,0 -14,-3 -6,-6 z"
           id="path14147" />
        <path
           style="fill:none;stroke:#ff0000;stroke-width:8.50393677;stroke-miterlimit:4;stroke-dasharray:none"
           inkscape:connector-curvature="0"
           d="m 2547,2003 c -5,-7 -6,-13 -4,-13 3,0 1,-16 -3,-36 -9,-40 -4,-64 13,-64 8,0 8,3 0,11 -7,7 -8,22 -1,45 11,40 7,77 -5,57 z"
           id="path14149" />
        <path
           style="fill:none;stroke:#ff0000;stroke-width:8.50393677;stroke-miterlimit:4;stroke-dasharray:none"
           inkscape:connector-curvature="0"
           d="m 1665,1990 c 3,-5 8,-10 11,-10 2,0 4,5 4,10 0,6 -5,10 -11,10 -5,0 -7,-4 -4,-10 z"
           id="path14151" />
        <path
           style="fill:none;stroke:#ff0000;stroke-width:8.50393677;stroke-miterlimit:4;stroke-dasharray:none"
           inkscape:connector-curvature="0"
           d="m 1830,1998 c 13,-14 70,-38 70,-29 0,5 -8,11 -17,14 -10,2 -27,8 -38,12 -11,5 -18,6 -15,3 z"
           id="path14153" />
        <path
           style="fill:none;stroke:#ff0000;stroke-width:8.50393677;stroke-miterlimit:4;stroke-dasharray:none"
           inkscape:connector-curvature="0"
           d="m 2500,1991 c 0,-10 19,-25 25,-20 1,2 -3,10 -11,17 -8,7 -14,8 -14,3 z"
           id="path14155" />
        <path
           style="fill:none;stroke:#ff0000;stroke-width:8.50393677;stroke-miterlimit:4;stroke-dasharray:none"
           inkscape:connector-curvature="0"
           d="m 1610,1970 c -6,-11 -8,-20 -6,-20 3,0 10,9 16,20 6,11 8,20 6,20 -3,0 -10,-9 -16,-20 z"
           id="path14157" />
        <path
           style="fill:none;stroke:#ff0000;stroke-width:8.50393677;stroke-miterlimit:4;stroke-dasharray:none"
           inkscape:connector-curvature="0"
           d="m 1619,1943 -24,-27 30,21 c 17,11 39,23 50,26 16,4 15,5 -6,6 -16,1 -34,-9 -50,-26 z"
           id="path14159" />
        <path
           style="fill:none;stroke:#ff0000;stroke-width:8.50393677;stroke-miterlimit:4;stroke-dasharray:none"
           inkscape:connector-curvature="0"
           d="m 1808,1963 c 7,-3 16,-2 19,1 4,3 -2,6 -13,5 -11,0 -14,-3 -6,-6 z"
           id="path14161" />
        <path
           style="fill:none;stroke:#ff0000;stroke-width:8.50393677;stroke-miterlimit:4;stroke-dasharray:none"
           inkscape:connector-curvature="0"
           d="m 2491,1954 c 0,-11 3,-14 6,-6 3,7 2,16 -1,19 -3,4 -6,-2 -5,-13 z"
           id="path14163" />
        <path
           style="fill:none;stroke:#ff0000;stroke-width:8.50393677;stroke-miterlimit:4;stroke-dasharray:none"
           inkscape:connector-curvature="0"
           d="m 562,1924 c 10,-10 20,-15 24,-12 3,4 -5,12 -18,18 -22,12 -22,12 -6,-6 z"
           id="path14165" />
        <path
           style="fill:none;stroke:#ff0000;stroke-width:8.50393677;stroke-miterlimit:4;stroke-dasharray:none"
           inkscape:connector-curvature="0"
           d="m 1650,1931 c 0,-5 7,-15 17,-22 15,-13 15,-12 4,9 -12,23 -21,28 -21,13 z"
           id="path14167" />
        <path
           style="fill:none;stroke:#ff0000;stroke-width:8.50393677;stroke-miterlimit:4;stroke-dasharray:none"
           inkscape:connector-curvature="0"
           d="m 605,1910 c 3,-5 8,-10 11,-10 2,0 4,5 4,10 0,6 -5,10 -11,10 -5,0 -7,-4 -4,-10 z"
           id="path14169" />
        <path
           style="fill:none;stroke:#ff0000;stroke-width:8.50393677;stroke-miterlimit:4;stroke-dasharray:none"
           inkscape:connector-curvature="0"
           d="m 1845,1899 c -4,-5 11,-9 31,-9 21,0 34,3 31,7 -11,10 -56,12 -62,2 z"
           id="path14171" />
        <path
           style="fill:none;stroke:#ff0000;stroke-width:8.50393677;stroke-miterlimit:4;stroke-dasharray:none"
           inkscape:connector-curvature="0"
           d="m 2481,1884 c 0,-11 3,-14 6,-6 3,7 2,16 -1,19 -3,4 -6,-2 -5,-13 z"
           id="path14173" />
        <path
           style="fill:none;stroke:#ff0000;stroke-width:8.50393677;stroke-miterlimit:4;stroke-dasharray:none"
           inkscape:connector-curvature="0"
           d="m 1920,1860 c 0,-6 7,-13 15,-16 8,-4 15,-14 15,-25 0,-10 7,-22 16,-27 12,-7 13,-14 5,-33 -16,-38 -35,-112 -32,-129 5,-35 11,-44 23,-32 9,9 9,15 0,24 -15,15 -16,39 0,36 6,-2 14,5 16,16 2,11 0,16 -7,12 -6,-4 -11,-2 -11,3 0,6 6,11 14,11 8,0 17,7 20,16 9,24 8,27 -10,20 -13,-5 -13,0 4,28 17,29 18,35 6,40 -8,3 -13,11 -12,18 2,7 -3,12 -10,13 -8,0 -19,8 -26,18 -15,19 -26,22 -26,7 z"
           id="path14175" />
        <path
           style="fill:none;stroke:#ff0000;stroke-width:8.50393677;stroke-miterlimit:4;stroke-dasharray:none"
           inkscape:connector-curvature="0"
           d="m 1950,1866 c 0,-2 7,-7 16,-10 8,-3 12,-2 9,4 -6,10 -25,14 -25,6 z"
           id="path14177" />
        <path
           style="fill:none;stroke:#ff0000;stroke-width:8.50393677;stroke-miterlimit:4;stroke-dasharray:none"
           inkscape:connector-curvature="0"
           d="m 2637,1850 c 3,-11 8,-19 12,-18 3,1 19,-4 34,-10 38,-16 45,-15 22,2 -11,8 -23,12 -27,10 -5,-3 -8,-1 -8,3 0,5 -9,14 -19,20 -16,10 -18,9 -14,-7 z"
           id="path14179" />
        <path
           style="fill:none;stroke:#ff0000;stroke-width:8.50393677;stroke-miterlimit:4;stroke-dasharray:none"
           inkscape:connector-curvature="0"
           d="m 1557,1853 c -9,-9 -9,-33 1,-31 4,0 15,-2 25,-7 10,-4 21,-5 24,-1 4,3 -1,6 -11,6 -9,0 -14,5 -11,10 3,6 -1,10 -10,10 -9,0 -13,5 -10,10 7,11 2,13 -8,3 z"
           id="path14181" />
        <path
           style="fill:none;stroke:#ff0000;stroke-width:8.50393677;stroke-miterlimit:4;stroke-dasharray:none"
           inkscape:connector-curvature="0"
           d="m 2481,1844 c 0,-11 3,-14 6,-6 3,7 2,16 -1,19 -3,4 -6,-2 -5,-13 z"
           id="path14183" />
        <path
           style="fill:none;stroke:#ff0000;stroke-width:8.50393677;stroke-miterlimit:4;stroke-dasharray:none"
           inkscape:connector-curvature="0"
           d="m 1700,1836 c 0,-9 5,-16 10,-16 6,0 10,4 10,9 0,6 -4,13 -10,16 -5,3 -10,-1 -10,-9 z"
           id="path14185" />
        <path
           style="fill:none;stroke:#ff0000;stroke-width:8.50393677;stroke-miterlimit:4;stroke-dasharray:none"
           inkscape:connector-curvature="0"
           d="m 1897,1829 c -4,-16 -3,-18 9,-8 7,6 11,15 8,20 -8,13 -11,11 -17,-12 z"
           id="path14187" />
        <path
           style="fill:none;stroke:#ff0000;stroke-width:8.50393677;stroke-miterlimit:4;stroke-dasharray:none"
           inkscape:connector-curvature="0"
           d="m 1509,1825 c -16,-16 -14,-79 2,-69 14,8 11,-14 -11,-91 -24,-83 -23,-80 -6,-63 7,8 17,38 21,66 4,29 11,52 16,52 9,0 13,-30 9,-60 -1,-8 1,-12 6,-8 4,4 17,-4 29,-18 13,-15 25,-22 29,-16 3,5 -1,12 -9,16 -17,6 -21,40 -3,34 6,-2 19,-18 28,-36 10,-17 23,-38 30,-46 6,-9 8,-21 4,-27 -5,-8 -2,-10 8,-6 9,3 19,3 23,-1 12,-12 55,-8 55,5 0,16 -22,17 -38,1 -9,-9 -12,-9 -13,2 -1,8 -1,18 0,22 0,4 -11,16 -24,26 -14,11 -25,23 -25,27 0,4 -13,24 -30,45 -31,39 -37,56 -20,62 5,2 6,9 1,16 -10,16 -41,5 -41,-15 0,-8 -4,-11 -10,-8 -5,3 -10,19 -10,36 0,20 -5,29 -17,29 -14,0 -14,2 2,20 21,23 16,27 -6,5 z m 73,-132 c 7,-8 4,-11 -11,-10 -12,1 -21,8 -21,17 0,22 14,35 19,18 2,-7 8,-18 13,-25 z"
           id="path14189" />
        <path
           style="fill:none;stroke:#ff0000;stroke-width:8.50393677;stroke-miterlimit:4;stroke-dasharray:none"
           inkscape:connector-curvature="0"
           d="m 1636,1825 c 4,-8 10,-12 15,-9 14,8 10,24 -6,24 -9,0 -12,-6 -9,-15 z"
           id="path14191" />
        <path
           style="fill:none;stroke:#ff0000;stroke-width:8.50393677;stroke-miterlimit:4;stroke-dasharray:none"
           inkscape:connector-curvature="0"
           d="m 1925,1820 c -3,-5 -1,-10 4,-10 6,0 11,5 11,10 0,6 -2,10 -4,10 -3,0 -8,-4 -11,-10 z"
           id="path14193" />
        <path
           style="fill:none;stroke:#ff0000;stroke-width:8.50393677;stroke-miterlimit:4;stroke-dasharray:none"
           inkscape:connector-curvature="0"
           d="m 670,1805 c 0,-8 2,-15 4,-15 2,0 6,7 10,15 3,8 1,15 -4,15 -6,0 -10,-7 -10,-15 z"
           id="path14195" />
        <path
           style="fill:none;stroke:#ff0000;stroke-width:8.50393677;stroke-miterlimit:4;stroke-dasharray:none"
           inkscape:connector-curvature="0"
           d="m 2679,1779 c 49,-34 60,-46 55,-62 -4,-14 -2,-18 7,-15 8,3 26,-1 42,-9 15,-7 27,-11 27,-9 0,10 -96,96 -107,96 -7,0 -13,5 -13,11 0,5 -4,8 -9,5 -5,-3 -11,1 -15,9 -3,8 -15,15 -27,15 -16,0 -6,-11 40,-41 z"
           id="path14197" />
        <path
           style="fill:none;stroke:#ff0000;stroke-width:8.50393677;stroke-miterlimit:4;stroke-dasharray:none"
           inkscape:connector-curvature="0"
           d="m 1650,1795 c -7,-9 -11,-17 -9,-20 3,-2 10,5 17,15 14,24 10,26 -8,5 z"
           id="path14199" />
        <path
           style="fill:none;stroke:#ff0000;stroke-width:8.50393677;stroke-miterlimit:4;stroke-dasharray:none"
           inkscape:connector-curvature="0"
           d="m 2030,1796 c 0,-2 9,-6 20,-9 11,-3 20,-1 20,4 0,5 -9,9 -20,9 -11,0 -20,-2 -20,-4 z"
           id="path14201" />
        <path
           style="fill:none;stroke:#ff0000;stroke-width:8.50393677;stroke-miterlimit:4;stroke-dasharray:none"
           inkscape:connector-curvature="0"
           d="m 1880,1779 c 0,-5 5,-7 10,-4 6,3 10,8 10,11 0,2 -4,4 -10,4 -5,0 -10,-5 -10,-11 z"
           id="path14203" />
        <path
           style="fill:none;stroke:#ff0000;stroke-width:8.50393677;stroke-miterlimit:4;stroke-dasharray:none"
           inkscape:connector-curvature="0"
           d="m 2000,1765 c 0,-3 7,-22 15,-42 18,-42 18,-46 5,-38 -5,3 -7,0 -4,-9 5,-12 9,-11 26,6 13,13 17,25 12,36 -4,9 -6,20 -6,25 1,4 -5,7 -13,7 -8,0 -15,5 -15,10 0,6 -4,10 -10,10 -5,0 -10,-2 -10,-5 z"
           id="path14205" />
        <path
           style="fill:none;stroke:#ff0000;stroke-width:8.50393677;stroke-miterlimit:4;stroke-dasharray:none"
           inkscape:connector-curvature="0"
           d="m 2210,1740 c 0,-5 5,-10 11,-10 5,0 7,5 4,10 -3,6 -8,10 -11,10 -2,0 -4,-4 -4,-10 z"
           id="path14207" />
        <path
           style="fill:none;stroke:#ff0000;stroke-width:8.50393677;stroke-miterlimit:4;stroke-dasharray:none"
           inkscape:connector-curvature="0"
           d="m 1856,1732 c -2,-4 2,-15 9,-25 12,-16 13,-16 18,2 5,19 -17,38 -27,23 z"
           id="path14209" />
        <path
           style="fill:none;stroke:#ff0000;stroke-width:8.50393677;stroke-miterlimit:4;stroke-dasharray:none"
           inkscape:connector-curvature="0"
           d="m 1625,1720 c -3,-5 -1,-10 4,-10 6,0 11,5 11,10 0,6 -2,10 -4,10 -3,0 -8,-4 -11,-10 z"
           id="path14211" />
        <path
           style="fill:none;stroke:#ff0000;stroke-width:8.50393677;stroke-miterlimit:4;stroke-dasharray:none"
           inkscape:connector-curvature="0"
           d="m 1670,1723 c 0,-13 29,-38 35,-31 3,3 -4,13 -15,23 -11,10 -20,13 -20,8 z"
           id="path14213" />
        <path
           style="fill:none;stroke:#ff0000;stroke-width:8.50393677;stroke-miterlimit:4;stroke-dasharray:none"
           inkscape:connector-curvature="0"
           d="m 1920,1715 c 0,-12 -4,-25 -9,-30 -5,-6 -5,-19 -1,-30 8,-18 9,-17 9,7 1,14 6,28 13,30 8,3 8,9 0,24 -11,19 -11,19 -12,-1 z"
           id="path14215" />
        <path
           style="fill:none;stroke:#ff0000;stroke-width:8.50393677;stroke-miterlimit:4;stroke-dasharray:none"
           inkscape:connector-curvature="0"
           d="m 1474,1701 c 0,-11 4,-17 8,-15 4,3 8,12 8,20 0,8 -4,14 -8,14 -4,0 -8,-9 -8,-19 z"
           id="path14217" />
        <path
           style="fill:none;stroke:#ff0000;stroke-width:8.50393677;stroke-miterlimit:4;stroke-dasharray:none"
           inkscape:connector-curvature="0"
           d="m 2075,1690 c -6,-20 0,-40 13,-40 4,0 7,14 7,30 0,34 -11,40 -20,10 z"
           id="path14219" />
        <path
           style="fill:none;stroke:#ff0000;stroke-width:8.50393677;stroke-miterlimit:4;stroke-dasharray:none"
           inkscape:connector-curvature="0"
           d="m 1647,1693 c -4,-6 2,-18 13,-28 23,-21 27,-8 7,20 -8,11 -16,14 -20,8 z"
           id="path14221" />
        <path
           style="fill:none;stroke:#ff0000;stroke-width:8.50393677;stroke-miterlimit:4;stroke-dasharray:none"
           inkscape:connector-curvature="0"
           d="m 1396,1658 c 3,-4 1,-8 -4,-8 -9,0 -92,-103 -92,-115 0,-3 9,0 20,7 11,7 20,18 20,25 0,6 11,20 25,31 13,11 21,23 17,27 -4,4 0,6 8,3 20,-6 19,-43 -1,-43 -8,0 -30,-17 -49,-38 -28,-32 -32,-42 -23,-57 9,-13 9,-21 0,-30 -9,-10 -9,-11 3,-8 8,3 18,21 21,41 6,36 19,62 19,38 0,-7 5,-9 11,-5 8,4 7,9 -2,15 -7,4 -11,9 -9,11 3,2 24,16 48,31 23,15 42,34 42,42 0,8 7,18 16,23 15,8 15,10 0,15 -10,4 -15,3 -11,-3 3,-6 0,-10 -9,-10 -8,0 -17,-6 -20,-12 -4,-7 -4,-3 -2,9 3,16 -1,21 -14,20 -10,-1 -16,-5 -14,-9 z"
           id="path14223" />
        <path
           style="fill:none;stroke:#ff0000;stroke-width:8.50393677;stroke-miterlimit:4;stroke-dasharray:none"
           inkscape:connector-curvature="0"
           d="m 1997,1650 c 3,-11 9,-20 15,-20 5,0 4,9 -2,20 -6,11 -12,20 -14,20 -2,0 -2,-9 1,-20 z"
           id="path14225" />
        <path
           style="fill:none;stroke:#ff0000;stroke-width:8.50393677;stroke-miterlimit:4;stroke-dasharray:none"
           inkscape:connector-curvature="0"
           d="m 2045,1656 c -3,-9 -7,-23 -10,-31 -2,-8 0,-17 5,-20 4,-3 11,9 15,26 7,32 -1,53 -10,25 z"
           id="path14227" />
        <path
           style="fill:none;stroke:#ff0000;stroke-width:8.50393677;stroke-miterlimit:4;stroke-dasharray:none"
           inkscape:connector-curvature="0"
           d="m 2465,1660 c 3,-5 8,-10 11,-10 2,0 4,5 4,10 0,6 -5,10 -11,10 -5,0 -7,-4 -4,-10 z"
           id="path14229" />
        <path
           style="fill:none;stroke:#ff0000;stroke-width:8.50393677;stroke-miterlimit:4;stroke-dasharray:none"
           inkscape:connector-curvature="0"
           d="m 2760,1664 c 0,-5 7,-18 15,-28 8,-11 15,-16 15,-10 0,5 -7,18 -15,28 -8,11 -15,16 -15,10 z"
           id="path14231" />
        <path
           style="fill:none;stroke:#ff0000;stroke-width:8.50393677;stroke-miterlimit:4;stroke-dasharray:none"
           inkscape:connector-curvature="0"
           d="m 1547,1624 c -9,-9 4,-35 14,-28 5,3 9,12 9,20 0,14 -12,19 -23,8 z"
           id="path14233" />
        <path
           style="fill:none;stroke:#ff0000;stroke-width:8.50393677;stroke-miterlimit:4;stroke-dasharray:none"
           inkscape:connector-curvature="0"
           d="m 1686,1608 c 6,-9 44,-6 44,3 0,4 -11,6 -24,5 -13,0 -22,-4 -20,-8 z"
           id="path14235" />
        <path
           style="fill:none;stroke:#ff0000;stroke-width:8.50393677;stroke-miterlimit:4;stroke-dasharray:none"
           inkscape:connector-curvature="0"
           d="m 2720,1613 c 0,-15 18,-35 23,-27 3,5 -1,15 -9,22 -8,7 -14,9 -14,5 z"
           id="path14237" />
        <path
           style="fill:none;stroke:#ff0000;stroke-width:8.50393677;stroke-miterlimit:4;stroke-dasharray:none"
           inkscape:connector-curvature="0"
           d="m 2826,1607 c 3,-10 9,-15 12,-12 3,3 0,11 -7,18 -10,9 -11,8 -5,-6 z"
           id="path14239" />
        <path
           style="fill:none;stroke:#ff0000;stroke-width:8.50393677;stroke-miterlimit:4;stroke-dasharray:none"
           inkscape:connector-curvature="0"
           d="m 1912,1590 c -15,-25 -15,-31 1,-24 7,2 13,13 14,24 2,25 1,25 -15,0 z"
           id="path14241" />
        <path
           style="fill:none;stroke:#ff0000;stroke-width:8.50393677;stroke-miterlimit:4;stroke-dasharray:none"
           inkscape:connector-curvature="0"
           d="m 1555,1565 c -36,-42 -67,-132 -54,-157 6,-10 20,-17 32,-17 21,2 21,2 -2,6 -20,4 -22,9 -17,35 3,17 13,36 23,43 11,9 13,14 4,19 -11,7 12,49 46,84 15,15 16,22 6,22 -5,0 -21,-16 -38,-35 z"
           id="path14243" />
        <path
           style="fill:none;stroke:#ff0000;stroke-width:8.50393677;stroke-miterlimit:4;stroke-dasharray:none"
           inkscape:connector-curvature="0"
           d="m 1963,1573 c 9,-2 23,-2 30,0 6,3 -1,5 -18,5 -16,0 -22,-2 -12,-5 z"
           id="path14245" />
        <path
           style="fill:none;stroke:#ff0000;stroke-width:8.50393677;stroke-miterlimit:4;stroke-dasharray:none"
           inkscape:connector-curvature="0"
           d="m 2841,1534 c 0,-11 3,-14 6,-6 3,7 2,16 -1,19 -3,4 -6,-2 -5,-13 z"
           id="path14247" />
        <path
           style="fill:none;stroke:#ff0000;stroke-width:8.50393677;stroke-miterlimit:4;stroke-dasharray:none"
           inkscape:connector-curvature="0"
           d="m 1658,1533 c 7,-3 16,-2 19,1 4,3 -2,6 -13,5 -11,0 -14,-3 -6,-6 z"
           id="path14249" />
        <path
           style="fill:none;stroke:#ff0000;stroke-width:8.50393677;stroke-miterlimit:4;stroke-dasharray:none"
           inkscape:connector-curvature="0"
           d="m 2390,1530 c 0,-5 5,-10 11,-10 5,0 7,5 4,10 -3,6 -8,10 -11,10 -2,0 -4,-4 -4,-10 z"
           id="path14251" />
        <path
           style="fill:none;stroke:#ff0000;stroke-width:8.50393677;stroke-miterlimit:4;stroke-dasharray:none"
           inkscape:connector-curvature="0"
           d="m 1476,1520 c -19,-6 -19,-7 -1,-14 10,-3 22,-3 28,3 12,12 -4,20 -27,11 z"
           id="path14253" />
        <path
           style="fill:none;stroke:#ff0000;stroke-width:8.50393677;stroke-miterlimit:4;stroke-dasharray:none"
           inkscape:connector-curvature="0"
           d="m 1273,1506 c 3,-6 0,-19 -5,-29 -8,-16 -7,-16 9,-6 23,14 27,46 7,46 -8,0 -13,-5 -11,-11 z"
           id="path14255" />
        <path
           style="fill:none;stroke:#ff0000;stroke-width:8.50393677;stroke-miterlimit:4;stroke-dasharray:none"
           inkscape:connector-curvature="0"
           d="m 2780,1511 c 0,-6 4,-13 10,-16 6,-3 7,1 4,9 -7,18 -14,21 -14,7 z"
           id="path14257" />
        <path
           style="fill:none;stroke:#ff0000;stroke-width:8.50393677;stroke-miterlimit:4;stroke-dasharray:none"
           inkscape:connector-curvature="0"
           d="m 890,1480 c 6,-11 15,-20 20,-20 6,0 2,9 -7,20 -10,11 -19,20 -21,20 -1,0 2,-9 8,-20 z"
           id="path14259" />
        <path
           style="fill:none;stroke:#ff0000;stroke-width:8.50393677;stroke-miterlimit:4;stroke-dasharray:none"
           inkscape:connector-curvature="0"
           d="m 2860,1475 c 0,-5 5,-17 10,-25 5,-8 10,-10 10,-5 0,6 -5,17 -10,25 -5,8 -10,11 -10,5 z"
           id="path14261" />
        <path
           style="fill:none;stroke:#ff0000;stroke-width:8.50393677;stroke-miterlimit:4;stroke-dasharray:none"
           inkscape:connector-curvature="0"
           d="m 1286,1463 c -28,-28 -51,-153 -25,-137 6,3 4,-7 -5,-24 -15,-28 -14,-32 15,-86 17,-32 33,-56 35,-54 1,2 -1,21 -6,43 -18,83 -21,159 -10,207 12,48 11,65 -4,51 z"
           id="path14263" />
        <path
           style="fill:none;stroke:#ff0000;stroke-width:8.50393677;stroke-miterlimit:4;stroke-dasharray:none"
           inkscape:connector-curvature="0"
           d="m 820,1427 c 19,-20 36,-37 38,-37 10,0 -35,53 -52,62 -14,7 -9,-2 14,-25 z"
           id="path14265" />
        <path
           style="fill:none;stroke:#ff0000;stroke-width:8.50393677;stroke-miterlimit:4;stroke-dasharray:none"
           inkscape:connector-curvature="0"
           d="m 2780,1456 c 0,-2 8,-10 18,-17 15,-13 16,-12 3,4 -13,16 -21,21 -21,13 z"
           id="path14267" />
        <path
           style="fill:none;stroke:#ff0000;stroke-width:8.50393677;stroke-miterlimit:4;stroke-dasharray:none"
           inkscape:connector-curvature="0"
           d="m 1301,1409 c -6,-18 -9,-34 -7,-36 2,-2 9,10 15,28 6,18 9,34 7,36 -2,2 -9,-10 -15,-28 z"
           id="path14269" />
        <path
           style="fill:none;stroke:#ff0000;stroke-width:8.50393677;stroke-miterlimit:4;stroke-dasharray:none"
           inkscape:connector-curvature="0"
           d="m 985,1398 c 26,-32 55,-54 60,-46 1,2 -19,21 -44,43 l -46,40 z"
           id="path14271" />
        <path
           style="fill:none;stroke:#ff0000;stroke-width:8.50393677;stroke-miterlimit:4;stroke-dasharray:none"
           inkscape:connector-curvature="0"
           d="m 900,1401 c 0,-5 7,-11 15,-15 8,-3 15,-1 15,3 0,5 -7,11 -15,15 -8,3 -15,1 -15,-3 z"
           id="path14273" />
        <path
           style="fill:none;stroke:#ff0000;stroke-width:8.50393677;stroke-miterlimit:4;stroke-dasharray:none"
           inkscape:connector-curvature="0"
           d="m 2780,1366 c 0,-2 8,-10 18,-17 15,-13 16,-12 3,4 -13,16 -21,21 -21,13 z"
           id="path14275" />
        <path
           style="fill:none;stroke:#ff0000;stroke-width:8.50393677;stroke-miterlimit:4;stroke-dasharray:none"
           inkscape:connector-curvature="0"
           d="m 2850,1360 c 0,-5 5,-10 11,-10 5,0 7,5 4,10 -3,6 -8,10 -11,10 -2,0 -4,-4 -4,-10 z"
           id="path14277" />
        <path
           style="fill:none;stroke:#ff0000;stroke-width:8.50393677;stroke-miterlimit:4;stroke-dasharray:none"
           inkscape:connector-curvature="0"
           d="m 2105,1343 c 4,-12 1,-41 -6,-65 -6,-24 -13,-56 -15,-72 -2,-16 -12,-41 -21,-55 -10,-14 -18,-28 -18,-31 0,-3 -11,-20 -24,-39 -17,-23 -49,-45 -105,-71 -67,-31 -85,-44 -102,-76 -15,-27 -19,-45 -14,-59 5,-11 9,-17 11,-12 4,17 6,23 13,39 4,9 9,25 10,34 3,23 58,54 89,52 32,-3 111,55 148,108 21,31 36,70 47,125 14,74 14,82 -1,112 -10,18 -15,23 -12,10 z"
           id="path14279" />
        <path
           style="fill:none;stroke:#ff0000;stroke-width:8.50393677;stroke-miterlimit:4;stroke-dasharray:none"
           inkscape:connector-curvature="0"
           d="m 959,1332 c 5,-10 18,-25 27,-33 11,-9 9,-2 -6,19 -26,35 -36,42 -21,14 z"
           id="path14281" />
        <path
           style="fill:none;stroke:#ff0000;stroke-width:8.50393677;stroke-miterlimit:4;stroke-dasharray:none"
           inkscape:connector-curvature="0"
           d="m 2526,1305 5,-40 -21,25 c -19,22 -20,22 -11,3 25,-49 52,-28 32,24 -9,26 -10,24 -5,-12 z"
           id="path14283" />
        <path
           style="fill:none;stroke:#ff0000;stroke-width:8.50393677;stroke-miterlimit:4;stroke-dasharray:none"
           inkscape:connector-curvature="0"
           d="m 2846,1305 c -3,-9 0,-15 9,-15 16,0 20,16 6,24 -5,3 -11,-1 -15,-9 z"
           id="path14285" />
        <path
           style="fill:none;stroke:#ff0000;stroke-width:8.50393677;stroke-miterlimit:4;stroke-dasharray:none"
           inkscape:connector-curvature="0"
           d="m 1113,1277 c 12,-13 24,-22 26,-20 6,4 -30,43 -40,43 -5,0 2,-10 14,-23 z"
           id="path14287" />
        <path
           style="fill:none;stroke:#ff0000;stroke-width:8.50393677;stroke-miterlimit:4;stroke-dasharray:none"
           inkscape:connector-curvature="0"
           d="m 2540,1251 c 0,-6 4,-13 10,-16 6,-3 7,1 4,9 -7,18 -14,21 -14,7 z"
           id="path14289" />
        <path
           style="fill:none;stroke:#ff0000;stroke-width:8.50393677;stroke-miterlimit:4;stroke-dasharray:none"
           inkscape:connector-curvature="0"
           d="m 2835,1230 c -15,-17 -16,-20 -3,-20 9,0 18,9 21,20 3,11 4,20 3,20 -2,0 -11,-9 -21,-20 z"
           id="path14291" />
        <path
           style="fill:none;stroke:#ff0000;stroke-width:8.50393677;stroke-miterlimit:4;stroke-dasharray:none"
           inkscape:connector-curvature="0"
           d="m 2037,1190 c -14,-22 -28,-50 -32,-62 -4,-13 10,3 30,36 40,66 43,88 2,26 z"
           id="path14293" />
        <path
           style="fill:none;stroke:#ff0000;stroke-width:8.50393677;stroke-miterlimit:4;stroke-dasharray:none"
           inkscape:connector-curvature="0"
           d="m 2520,1223 c 0,-6 5,-15 10,-18 6,-3 10,-16 10,-27 0,-12 3,-18 7,-15 3,4 12,-1 19,-11 12,-16 13,-15 8,4 -7,25 -53,84 -54,67 z"
           id="path14295" />
        <path
           style="fill:none;stroke:#ff0000;stroke-width:8.50393677;stroke-miterlimit:4;stroke-dasharray:none"
           inkscape:connector-curvature="0"
           d="m 1501,1204 c 0,-11 3,-14 6,-6 3,7 2,16 -1,19 -3,4 -6,-2 -5,-13 z"
           id="path14297" />
        <path
           style="fill:none;stroke:#ff0000;stroke-width:8.50393677;stroke-miterlimit:4;stroke-dasharray:none"
           inkscape:connector-curvature="0"
           d="m 2587,1193 c -3,-5 -2,-15 2,-22 7,-10 10,-10 16,-1 4,6 3,16 -3,22 -5,5 -12,6 -15,1 z"
           id="path14299" />
        <path
           style="fill:none;stroke:#ff0000;stroke-width:8.50393677;stroke-miterlimit:4;stroke-dasharray:none"
           inkscape:connector-curvature="0"
           d="m 1405,1180 c -3,-5 -1,-10 4,-10 6,0 11,5 11,10 0,6 -2,10 -4,10 -3,0 -8,-4 -11,-10 z"
           id="path14301" />
        <path
           style="fill:none;stroke:#ff0000;stroke-width:8.50393677;stroke-miterlimit:4;stroke-dasharray:none"
           inkscape:connector-curvature="0"
           d="m 1768,1173 c 7,-3 16,-2 19,1 4,3 -2,6 -13,5 -11,0 -14,-3 -6,-6 z"
           id="path14303" />
        <path
           style="fill:none;stroke:#ff0000;stroke-width:8.50393677;stroke-miterlimit:4;stroke-dasharray:none"
           inkscape:connector-curvature="0"
           d="m 2130,1167 c 0,-1 -4,-18 -10,-36 -5,-19 -6,-30 -1,-25 10,11 24,64 16,64 -3,0 -5,-1 -5,-3 z"
           id="path14305" />
        <path
           style="fill:none;stroke:#ff0000;stroke-width:8.50393677;stroke-miterlimit:4;stroke-dasharray:none"
           inkscape:connector-curvature="0"
           d="m 1925,1149 c -5,-8 -4,-10 3,-5 7,4 12,3 12,-3 0,-5 -6,-12 -12,-14 -10,-4 -10,-6 -1,-6 17,-1 27,19 15,31 -6,6 -12,6 -17,-3 z"
           id="path14307" />
        <path
           style="fill:none;stroke:#ff0000;stroke-width:8.50393677;stroke-miterlimit:4;stroke-dasharray:none"
           inkscape:connector-curvature="0"
           d="m 958,1123 c 6,-2 18,-2 25,0 6,3 1,5 -13,5 -14,0 -19,-2 -12,-5 z"
           id="path14309" />
        <path
           style="fill:none;stroke:#ff0000;stroke-width:8.50393677;stroke-miterlimit:4;stroke-dasharray:none"
           inkscape:connector-curvature="0"
           d="m 2566,1113 c -6,-14 -5,-15 5,-6 7,7 10,15 7,18 -3,3 -9,-2 -12,-12 z"
           id="path14311" />
        <path
           style="fill:none;stroke:#ff0000;stroke-width:8.50393677;stroke-miterlimit:4;stroke-dasharray:none"
           inkscape:connector-curvature="0"
           d="m 2910,1122 c 0,-4 17,-6 38,-4 58,5 62,10 10,11 -27,1 -48,-3 -48,-7 z"
           id="path14313" />
        <path
           style="fill:none;stroke:#ff0000;stroke-width:8.50393677;stroke-miterlimit:4;stroke-dasharray:none"
           inkscape:connector-curvature="0"
           d="m 828,1103 c 6,-2 18,-2 25,0 6,3 1,5 -13,5 -14,0 -19,-2 -12,-5 z"
           id="path14315" />
        <path
           style="fill:none;stroke:#ff0000;stroke-width:8.50393677;stroke-miterlimit:4;stroke-dasharray:none"
           inkscape:connector-curvature="0"
           d="m 875,1100 c -3,-6 1,-7 9,-4 18,7 21,14 7,14 -6,0 -13,-4 -16,-10 z"
           id="path14317" />
        <path
           style="fill:none;stroke:#ff0000;stroke-width:8.50393677;stroke-miterlimit:4;stroke-dasharray:none"
           inkscape:connector-curvature="0"
           d="m 918,1103 c 6,-2 18,-2 25,0 6,3 1,5 -13,5 -14,0 -19,-2 -12,-5 z"
           id="path14319" />
        <path
           style="fill:none;stroke:#ff0000;stroke-width:8.50393677;stroke-miterlimit:4;stroke-dasharray:none"
           inkscape:connector-curvature="0"
           d="m 1960,1060 c -24,-19 -24,-19 -2,-13 12,3 25,10 28,15 11,18 -1,17 -26,-2 z"
           id="path14321" />
        <path
           style="fill:none;stroke:#ff0000;stroke-width:8.50393677;stroke-miterlimit:4;stroke-dasharray:none"
           inkscape:connector-curvature="0"
           d="m 1735,1034 c -19,-14 -19,-14 5,-10 14,2 29,5 33,5 10,1 -1,21 -11,21 -4,0 -16,-7 -27,-16 z"
           id="path14323" />
        <path
           style="fill:none;stroke:#ff0000;stroke-width:8.50393677;stroke-miterlimit:4;stroke-dasharray:none"
           inkscape:connector-curvature="0"
           d="m 1311,948 c 14,-32 35,-43 43,-22 3,9 1,12 -4,9 -6,-4 -20,4 -30,17 l -20,23 z"
           id="path14325" />
        <path
           style="fill:none;stroke:#ff0000;stroke-width:8.50393677;stroke-miterlimit:4;stroke-dasharray:none"
           inkscape:connector-curvature="0"
           d="m 1900,960 c 0,-5 7,-10 15,-10 9,0 24,-13 33,-30 17,-29 32,-39 32,-21 0,9 -66,71 -75,71 -3,0 -5,-4 -5,-10 z"
           id="path14327" />
        <path
           style="fill:none;stroke:#ff0000;stroke-width:8.50393677;stroke-miterlimit:4;stroke-dasharray:none"
           inkscape:connector-curvature="0"
           d="m 1950,956 c 0,-2 8,-10 18,-17 15,-13 16,-12 3,4 -13,16 -21,21 -21,13 z"
           id="path14329" />
        <path
           style="fill:none;stroke:#ff0000;stroke-width:8.50393677;stroke-miterlimit:4;stroke-dasharray:none"
           inkscape:connector-curvature="0"
           d="m 1900,905 c 0,-8 4,-15 9,-15 5,0 11,7 15,15 3,9 0,15 -9,15 -8,0 -15,-7 -15,-15 z"
           id="path14331" />
        <path
           style="fill:none;stroke:#ff0000;stroke-width:8.50393677;stroke-miterlimit:4;stroke-dasharray:none"
           inkscape:connector-curvature="0"
           d="m 1153,869 c -1,-12 -6,-25 -12,-28 -12,-8 2,-34 15,-29 5,1 13,-7 19,-20 5,-12 18,-25 29,-28 15,-5 16,-8 5,-16 -11,-7 -9,-8 5,-4 11,4 23,1 28,-6 6,-10 8,-9 8,4 0,9 -5,20 -11,23 -6,4 -8,13 -5,20 2,7 -2,16 -10,19 -8,3 -14,12 -14,21 0,8 -4,15 -10,15 -13,0 -13,-6 5,-40 9,-17 11,-30 6,-30 -16,0 -34,41 -35,79 -1,38 -21,54 -23,20 z"
           id="path14333" />
        <path
           style="fill:none;stroke:#ff0000;stroke-width:8.50393677;stroke-miterlimit:4;stroke-dasharray:none"
           inkscape:connector-curvature="0"
           d="m 1760,870 c -23,-7 -23,-8 -3,-9 12,-1 25,4 28,9 3,6 5,10 3,9 -2,-1 -14,-5 -28,-9 z"
           id="path14335" />
        <path
           style="fill:none;stroke:#ff0000;stroke-width:8.50393677;stroke-miterlimit:4;stroke-dasharray:none"
           inkscape:connector-curvature="0"
           d="m 1913,859 c 1,-18 3,-18 13,-5 6,9 15,12 19,8 5,-4 5,-1 1,6 -12,20 -35,14 -33,-9 z"
           id="path14337" />
        <path
           style="fill:none;stroke:#ff0000;stroke-width:8.50393677;stroke-miterlimit:4;stroke-dasharray:none"
           inkscape:connector-curvature="0"
           d="m 1980,866 c 0,-9 -4,-14 -10,-11 -5,3 -10,1 -10,-4 0,-6 5,-11 10,-11 13,0 25,28 16,37 -3,4 -6,-1 -6,-11 z"
           id="path14339" />
        <path
           style="fill:none;stroke:#ff0000;stroke-width:8.50393677;stroke-miterlimit:4;stroke-dasharray:none"
           inkscape:connector-curvature="0"
           d="m 1825,860 c -3,-5 -1,-10 4,-10 6,0 11,5 11,10 0,6 -2,10 -4,10 -3,0 -8,-4 -11,-10 z"
           id="path14341" />
        <path
           style="fill:none;stroke:#ff0000;stroke-width:8.50393677;stroke-miterlimit:4;stroke-dasharray:none"
           inkscape:connector-curvature="0"
           d="m 1065,830 c 3,-5 8,-10 11,-10 2,0 4,5 4,10 0,6 -5,10 -11,10 -5,0 -7,-4 -4,-10 z"
           id="path14343" />
        <path
           style="fill:none;stroke:#ff0000;stroke-width:8.50393677;stroke-miterlimit:4;stroke-dasharray:none"
           inkscape:connector-curvature="0"
           d="m 1818,812 c 9,-10 19,-17 21,-16 6,5 -20,34 -30,34 -5,0 -1,-8 9,-18 z"
           id="path14345" />
        <path
           style="fill:none;stroke:#ff0000;stroke-width:8.50393677;stroke-miterlimit:4;stroke-dasharray:none"
           inkscape:connector-curvature="0"
           d="m 1098,785 c 5,-29 8,-31 15,-11 3,8 0,19 -7,25 -10,9 -12,6 -8,-14 z"
           id="path14347" />
        <path
           style="fill:none;stroke:#ff0000;stroke-width:8.50393677;stroke-miterlimit:4;stroke-dasharray:none"
           inkscape:connector-curvature="0"
           d="m 1230,480 c 0,-5 5,-10 11,-10 5,0 7,5 4,10 -3,6 -8,10 -11,10 -2,0 -4,-4 -4,-10 z"
           id="path14349" />
        <path
           style="fill:none;stroke:#ff0000;stroke-width:8.50393677;stroke-miterlimit:4;stroke-dasharray:none"
           inkscape:connector-curvature="0"
           d="m 2536,422 c -3,-4 4,-9 15,-9 23,-2 25,3 4,10 -8,4 -16,3 -19,-1 z"
           id="path14351" />
        <path
           style="fill:none;stroke:#ff0000;stroke-width:8.50393677;stroke-miterlimit:4;stroke-dasharray:none"
           inkscape:connector-curvature="0"
           d="m 2015,370 c -3,-5 1,-10 10,-10 9,0 13,5 10,10 -3,6 -8,10 -10,10 -2,0 -7,-4 -10,-10 z"
           id="path14353" />
        <path
           style="fill:none;stroke:#ff0000;stroke-width:8.50393677;stroke-miterlimit:4;stroke-dasharray:none"
           inkscape:connector-curvature="0"
           d="m 1216,255 c -9,-26 -7,-32 5,-12 6,10 9,21 6,23 -2,3 -7,-2 -11,-11 z"
           id="path14355" />
        <path
           style="fill:none;stroke:#ff0000;stroke-width:8.50393677;stroke-miterlimit:4;stroke-dasharray:none"
           inkscape:connector-curvature="0"
           d="m 1191,224 c 0,-11 3,-14 6,-6 3,7 2,16 -1,19 -3,4 -6,-2 -5,-13 z"
           id="path14357" />
      </g>
    </g>
  </g>
</svg>
